<?xml version="1.0" encoding="utf-8"?>
<!-- Generator: Adobe Illustrator 17.1.0, SVG Export Plug-In . SVG Version: 6.00 Build 0)  -->
<!DOCTYPE svg PUBLIC "-//W3C//DTD SVG 1.1//EN" "http://www.w3.org/Graphics/SVG/1.1/DTD/svg11.dtd">
<svg version="1.1" id="Calque_1" xmlns="http://www.w3.org/2000/svg" xmlns:xlink="http://www.w3.org/1999/xlink" x="0px" y="0px"
	 viewBox="0 0 173 173" enable-background="new 0 0 173 173" xml:space="preserve">
<path fill="#D94E39" d="M86.5,173c-11.7,0-23-2.3-33.7-6.8c-10.3-4.4-19.6-10.6-27.5-18.5c-7.9-7.9-14.2-17.2-18.5-27.5
	C2.3,109.5,0,98.2,0,86.5s2.3-23,6.8-33.7c4.4-10.3,10.6-19.6,18.5-27.5S42.5,11.2,52.8,6.8C63.5,2.3,74.8,0,86.5,0s23,2.3,33.7,6.8
	c10.3,4.4,19.6,10.6,27.5,18.5c7.9,7.9,14.2,17.2,18.5,27.5c4.5,10.7,6.8,22,6.8,33.7s-2.3,23-6.8,33.7
	c-4.4,10.3-10.6,19.6-18.5,27.5c-7.9,7.9-17.2,14.2-27.5,18.5C109.5,170.7,98.2,173,86.5,173z M86.5,2.5c-11.3,0-22.3,2.2-32.7,6.6
	c-10,4.2-19,10.3-26.7,18s-13.8,16.7-18,26.7C4.8,64.2,2.5,75.2,2.5,86.5s2.2,22.3,6.6,32.7c4.2,10,10.3,19,18,26.7
	c7.7,7.7,16.7,13.8,26.7,18c10.3,4.4,21.3,6.6,32.7,6.6s22.3-2.2,32.7-6.6c10-4.2,19-10.3,26.7-18c7.7-7.7,13.8-16.7,18-26.7
	c4.4-10.3,6.6-21.3,6.6-32.7s-2.2-22.3-6.6-32.7c-4.2-10-10.3-19-18-26.7c-7.7-7.7-16.7-13.8-26.7-18C108.8,4.8,97.8,2.5,86.5,2.5z"
	/>
<polyline fill="none" stroke="#D94E39" stroke-width="2" stroke-miterlimit="10" points="74.9,67.1 51,67.1 51,136.5 122,136.5 
	122,67.1 98.7,67.1 "/>
<polyline fill="none" stroke="#D94E39" stroke-width="2" stroke-miterlimit="10" points="70.7,53.1 86.3,37.6 99.7,52.1 "/>
<line fill="none" stroke="#D94E39" stroke-width="2" stroke-miterlimit="10" x1="86.3" y1="101" x2="86.3" y2="37.6"/>
</svg>
