<?xml version="1.0" encoding="utf-8"?>
<!-- Generator: Adobe Illustrator 17.1.0, SVG Export Plug-In . SVG Version: 6.00 Build 0)  -->
<!DOCTYPE svg PUBLIC "-//W3C//DTD SVG 1.1//EN" "http://www.w3.org/Graphics/SVG/1.1/DTD/svg11.dtd">
<svg version="1.1" id="Calque_1" xmlns="http://www.w3.org/2000/svg" xmlns:xlink="http://www.w3.org/1999/xlink" x="0px" y="0px"
	 viewBox="0 0 282 103" enable-background="new 0 0 282 103" xml:space="preserve">
<g>
	<path fill="none" d="M41.603,28.174l-9.276-4.429c-0.291-0.139-0.604,0.149-0.488,0.45l0.64,1.675
		c0.101,0.265,0.301,0.48,0.557,0.6l5.556,2.609c0.223,0.105,0.472,0.142,0.715,0.107l2.188-0.311
		C41.859,28.825,41.935,28.333,41.603,28.174z"/>
	<path fill="#FFFFFF" d="M78.703,74.223l-10.109-3.82c-0.45-0.17-0.386-0.826,0.089-0.905l0.634-0.106
		c0.873-0.146,1.137-1.273,0.419-1.791l-7.375-5.328l-0.53-3.102c-0.201-1.175,0.776-2.216,1.962-2.09l12.842,1.365
		c0.861,0.092,1.279-1.024,0.568-1.52L56.987,42.811c-0.628-0.439-0.318-1.425,0.448-1.425h0.044c0.706,0,1.074-0.84,0.596-1.359
		l-11.77-12.78L26.251,17.193L16.203,4.457c-0.576-0.731-1.344-1.288-2.217-1.609l-0.034-0.012c-1.132-0.417-2.396,0.09-2.927,1.173
		l-4.09,8.347c-0.567,1.158-0.561,2.514,0.017,3.666l5.971,11.905l-10.113-6.64c-0.653-0.429-1.529-0.015-1.613,0.762l-0.18,1.669
		c-0.07,0.646,0.089,1.296,0.449,1.837l10.132,15.24l1.15,13.055L7.102,70.122c-0.094,0.272,0.22,0.502,0.451,0.329l1.872-1.402
		c0.192-0.144,0.463,0.012,0.436,0.25l-0.955,8.395c-0.068,0.596,0.645,0.952,1.081,0.539l1.356-1.285
		c0.181-0.172,0.479-0.033,0.463,0.217L11.66,79.5c-0.099,1.583,0.189,3.166,0.837,4.613l0.195,0.436l0.834,2.914
		c0.142,0.497,0.786,0.628,1.111,0.226l0.495-0.612c0.455-0.563,1.356-0.376,1.55,0.321l3.767,13.566
		c0.428,1.543,2.14,2.331,3.591,1.654l54.769-25.561C80.044,76.481,79.977,74.704,78.703,74.223z M41.495,28.877l-2.188,0.311
		c-0.244,0.035-0.492-0.003-0.715-0.107l-5.556-2.609c-0.257-0.12-0.456-0.336-0.557-0.6l-0.64-1.675
		c-0.115-0.302,0.197-0.59,0.488-0.45l9.276,4.429C41.935,28.333,41.859,28.825,41.495,28.877z"/>
</g>
<g>
	<path fill="#FFFFFF" d="M108.329,39.022c0-0.278,0.118-0.509,0.352-0.695c0.234-0.185,0.489-0.278,0.765-0.278
		c0.52,0,0.835,0.256,0.945,0.766l8.199,29.273l4.759-17.684c0.15-0.578,0.554-0.867,1.214-0.867c0.66,0,1.08,0.336,1.26,1.007
		l4.863,17.555l8.148-29.423c0.122-0.418,0.472-0.626,1.051-0.626c0.304,0,0.586,0.088,0.845,0.261
		c0.259,0.174,0.389,0.393,0.389,0.653c0,0.117-0.016,0.218-0.046,0.305l-9.101,31.999c-0.184,0.612-0.628,0.918-1.333,0.918
		c-0.735,0-1.149-0.252-1.24-0.756l-4.796-17.484l-4.759,17.326c-0.136,0.609-0.513,0.913-1.133,0.913
		c-0.621,0-0.999-0.281-1.133-0.842l-9.201-31.997C108.344,39.254,108.329,39.146,108.329,39.022z"/>
	<path fill="#FFFFFF" d="M145.846,62.459V47.776c0-3.365,0.841-5.828,2.524-7.387c1.683-1.559,3.945-2.34,6.786-2.34
		c2.809,0,5.072,0.781,6.786,2.34c1.714,1.559,2.57,4.022,2.57,7.387v14.683c0,3.366-0.856,5.829-2.57,7.387
		c-1.714,1.56-3.977,2.34-6.786,2.34c-2.841,0-5.103-0.78-6.786-2.34C146.687,68.288,145.846,65.825,145.846,62.459z
		 M148.162,62.459c0,5.002,2.332,7.504,6.994,7.504c2.254,0,3.991-0.626,5.211-1.876c1.219-1.251,1.829-3.126,1.829-5.627V47.776
		c0-2.501-0.61-4.376-1.829-5.627c-1.22-1.25-2.957-1.875-5.211-1.875c-4.662,0-6.994,2.501-6.994,7.503V62.459z"/>
	<path fill="#FFFFFF" d="M171.505,70.889V39.022c0-0.648,0.386-0.973,1.158-0.973c0.772,0,1.158,0.325,1.158,0.973v30.662h13.663
		c0.586,0,0.88,0.371,0.88,1.112c0,0.741-0.294,1.112-0.88,1.112h-14.868C171.876,71.908,171.505,71.569,171.505,70.889z"/>
	<path fill="#FFFFFF" d="M190.819,67.369c0-0.309,0.116-0.602,0.347-0.88c0.232-0.278,0.471-0.417,0.719-0.417
		c0.184,0,0.463,0.201,0.833,0.602l1.25,1.343c0.464,0.494,1.212,0.942,2.247,1.344c1.034,0.402,2.23,0.602,3.59,0.602
		c2.377,0,4.199-0.586,5.465-1.761c1.266-1.173,1.899-2.902,1.899-5.188c0-1.729-0.387-3.164-1.158-4.308
		c-0.772-1.141-1.73-1.96-2.871-2.454c-1.142-0.493-2.386-1.003-3.728-1.528c-1.344-0.525-2.587-1.043-3.728-1.552
		c-1.143-0.509-2.1-1.35-2.872-2.524c-0.773-1.173-1.158-2.656-1.158-4.446c0-1.606,0.293-2.972,0.88-4.099
		c0.586-1.127,1.374-1.976,2.363-2.548c0.988-0.57,1.984-0.972,2.987-1.204c1.004-0.231,2.077-0.347,3.22-0.347
		c1.852,0,3.573,0.27,5.164,0.81c1.59,0.54,2.386,1.15,2.386,1.829c0,0.278-0.109,0.572-0.324,0.88
		c-0.216,0.309-0.464,0.464-0.742,0.464c-0.155,0-0.494-0.147-1.019-0.441c-0.525-0.293-1.274-0.586-2.246-0.88
		c-0.973-0.293-2.062-0.44-3.266-0.44c-2.008,0-3.691,0.44-5.048,1.32c-1.36,0.88-2.039,2.371-2.039,4.47
		c0,1.266,0.285,2.324,0.857,3.172c0.571,0.85,1.312,1.505,2.223,1.969c0.91,0.464,1.914,0.88,3.011,1.251
		c1.096,0.37,2.2,0.787,3.312,1.25c1.112,0.464,2.122,1.035,3.034,1.714c0.911,0.68,1.652,1.645,2.224,2.895
		c0.57,1.25,0.856,2.755,0.856,4.516c0,3.149-0.856,5.505-2.57,7.063c-1.715,1.56-4.007,2.34-6.879,2.34
		c-2.656,0-4.856-0.571-6.6-1.714C191.691,69.33,190.819,68.295,190.819,67.369z"/>
	<path fill="#FFFFFF" d="M215.228,70.889V39.022c0-0.586,0.355-0.91,1.066-0.973h8.337c2.809,0,5.064,0.781,6.763,2.34
		c1.698,1.559,2.547,4.007,2.547,7.341v0.509c0,3.335-0.856,5.79-2.571,7.364c-1.714,1.575-3.976,2.363-6.785,2.363h-7.04v12.923
		c0,0.68-0.387,1.019-1.158,1.019C215.614,71.908,215.228,71.569,215.228,70.889z M217.545,55.836h7.04
		c2.253,0,3.991-0.625,5.211-1.876c1.219-1.25,1.829-3.141,1.829-5.674v-0.509c0-2.501-0.61-4.376-1.829-5.627
		c-1.22-1.25-2.958-1.875-5.211-1.875h-7.04V55.836z"/>
	<path fill="#FFFFFF" d="M238.943,62.459V47.776c0-3.365,0.841-5.828,2.524-7.387c1.683-1.559,3.945-2.34,6.786-2.34
		c2.809,0,5.072,0.781,6.786,2.34c1.714,1.559,2.57,4.022,2.57,7.387v14.683c0,3.366-0.856,5.829-2.57,7.387
		c-1.714,1.56-3.977,2.34-6.786,2.34c-2.841,0-5.103-0.78-6.786-2.34C239.784,68.288,238.943,65.825,238.943,62.459z
		 M241.259,62.459c0,5.002,2.332,7.504,6.994,7.504c2.254,0,3.991-0.626,5.211-1.876c1.219-1.251,1.829-3.126,1.829-5.627V47.776
		c0-2.501-0.61-4.376-1.829-5.627c-1.22-1.25-2.957-1.875-5.211-1.875c-4.662,0-6.994,2.501-6.994,7.503V62.459z"/>
	<path fill="#FFFFFF" d="M260.991,39.948c-0.185-0.215-0.278-0.479-0.278-0.788c0-0.308,0.093-0.57,0.278-0.787
		c0.185-0.216,0.417-0.325,0.695-0.325h18.342c0.648,0,0.972,0.356,0.972,1.066c0,0.773-0.324,1.158-0.972,1.158h-7.967v30.616
		c0,0.68-0.387,1.019-1.157,1.019c-0.773,0-1.158-0.339-1.158-1.019V40.273h-8.059C261.408,40.273,261.177,40.165,260.991,39.948z"
		/>
</g>
</svg>
