<?xml version="1.0" encoding="utf-8"?>
<!-- Generator: Adobe Illustrator 17.1.0, SVG Export Plug-In . SVG Version: 6.00 Build 0)  -->
<!DOCTYPE svg PUBLIC "-//W3C//DTD SVG 1.1//EN" "http://www.w3.org/Graphics/SVG/1.1/DTD/svg11.dtd">
<svg version="1.1" id="Calque_1" xmlns="http://www.w3.org/2000/svg" xmlns:xlink="http://www.w3.org/1999/xlink" x="0px" y="0px"
	 viewBox="0 0 394.333 140.333" enable-background="new 0 0 394.333 140.333" xml:space="preserve">
<g>
	<path fill="none" d="M56.844,35.679l-12.986-6.201c-0.408-0.195-0.845,0.208-0.684,0.631l0.896,2.346
		c0.142,0.371,0.421,0.672,0.78,0.841l7.778,3.652c0.312,0.147,0.66,0.199,1.002,0.15l3.063-0.435
		C57.203,36.59,57.309,35.9,56.844,35.679z"/>
	<path fill="#FFFFFF" d="M108.784,100.146l-14.153-5.348c-0.63-0.238-0.54-1.156,0.124-1.268l0.888-0.149
		c1.222-0.205,1.591-1.782,0.587-2.508l-10.325-7.459l-0.743-4.342c-0.281-1.645,1.087-3.102,2.746-2.926l17.979,1.911
		c1.206,0.128,1.79-1.434,0.796-2.128L78.382,56.171c-0.879-0.614-0.445-1.995,0.627-1.995h0.061c0.988,0,1.504-1.176,0.834-1.903
		L63.427,34.381L35.352,20.305L21.284,2.474c-0.807-1.023-1.882-1.803-3.104-2.253l-0.047-0.017
		c-1.585-0.584-3.355,0.126-4.098,1.643L8.308,13.532c-0.794,1.621-0.785,3.519,0.024,5.132l8.36,16.667L2.533,26.035
		c-0.915-0.601-2.141-0.022-2.259,1.067l-0.252,2.337c-0.098,0.905,0.125,1.815,0.629,2.572l14.185,21.336l1.61,18.277l-7.903,22.78
		c-0.132,0.381,0.309,0.703,0.631,0.461l2.62-1.963c0.269-0.201,0.648,0.016,0.61,0.35l-1.337,11.752
		c-0.095,0.834,0.903,1.332,1.513,0.755l1.899-1.8c0.254-0.24,0.671-0.046,0.649,0.303l-0.204,3.271
		c-0.138,2.216,0.264,4.432,1.172,6.458l0.273,0.61l1.167,4.08c0.199,0.696,1.1,0.88,1.556,0.316l0.692-0.857
		c0.637-0.788,1.899-0.527,2.17,0.45l5.274,18.992c0.6,2.16,2.996,3.264,5.028,2.316l76.676-35.785
		C110.661,103.308,110.567,100.82,108.784,100.146z M56.694,36.662l-3.063,0.435c-0.341,0.048-0.689-0.004-1.002-0.15l-7.778-3.652
		c-0.359-0.169-0.639-0.47-0.78-0.841l-0.896-2.346c-0.161-0.422,0.276-0.825,0.684-0.631l12.986,6.201
		C57.309,35.9,57.203,36.59,56.694,36.662z"/>
</g>
<g>
	<path fill="#FFFFFF" d="M150.26,50.866c0-0.389,0.165-0.713,0.493-0.973c0.328-0.26,0.685-0.389,1.07-0.389
		c0.729,0,1.17,0.359,1.323,1.072l11.479,40.982l6.663-24.757c0.209-0.809,0.776-1.214,1.7-1.214s1.512,0.47,1.764,1.41
		l6.808,24.577l11.407-41.193c0.17-0.585,0.66-0.876,1.471-0.876c0.426,0,0.821,0.123,1.184,0.366
		c0.363,0.244,0.544,0.55,0.544,0.914c0,0.163-0.022,0.306-0.064,0.427L183.361,96.01c-0.258,0.857-0.879,1.285-1.866,1.285
		c-1.029,0-1.609-0.353-1.736-1.058l-6.714-24.477l-6.663,24.256c-0.19,0.853-0.719,1.278-1.587,1.278
		c-0.869,0-1.398-0.394-1.587-1.179l-12.882-44.796C150.281,51.19,150.26,51.039,150.26,50.866z"/>
	<path fill="#FFFFFF" d="M202.784,83.678V63.121c0-4.71,1.178-8.159,3.534-10.342c2.356-2.183,5.523-3.276,9.5-3.276
		c3.933,0,7.101,1.093,9.5,3.276c2.399,2.183,3.598,5.631,3.598,10.342v20.557c0,4.712-1.199,8.16-3.598,10.342
		c-2.399,2.184-5.567,3.276-9.5,3.276c-3.978,0-7.144-1.091-9.5-3.276C203.962,91.838,202.784,88.389,202.784,83.678z
		 M206.027,83.678c0,7.003,3.264,10.505,9.792,10.505c3.156,0,5.587-0.877,7.295-2.627c1.707-1.752,2.561-4.377,2.561-7.878V63.121
		c0-3.502-0.854-6.127-2.561-7.878c-1.708-1.75-4.139-2.625-7.295-2.625c-6.527,0-9.792,3.502-9.792,10.504V83.678z"/>
	<path fill="#FFFFFF" d="M238.707,95.479V50.866c0-0.907,0.54-1.362,1.622-1.362c1.08,0,1.622,0.455,1.622,1.362v42.927h19.129
		c0.821,0,1.232,0.519,1.232,1.556c0,1.037-0.412,1.556-1.232,1.556h-20.815C239.226,96.906,238.707,96.431,238.707,95.479z"/>
	<path fill="#FFFFFF" d="M265.747,90.551c0-0.433,0.162-0.843,0.486-1.232c0.325-0.389,0.659-0.583,1.006-0.583
		c0.258,0,0.648,0.282,1.167,0.843l1.75,1.88c0.649,0.692,1.697,1.319,3.146,1.881c1.447,0.562,3.122,0.843,5.026,0.843
		c3.327,0,5.878-0.821,7.651-2.465c1.773-1.643,2.659-4.063,2.659-7.263c0-2.42-0.542-4.43-1.622-6.031
		c-1.08-1.598-2.421-2.744-4.019-3.436c-1.599-0.691-3.34-1.404-5.22-2.14c-1.881-0.736-3.622-1.46-5.22-2.173
		c-1.601-0.713-2.941-1.89-4.021-3.534c-1.082-1.643-1.622-3.718-1.622-6.225c0-2.248,0.41-4.16,1.232-5.739
		c0.821-1.578,1.923-2.766,3.308-3.567c1.383-0.798,2.777-1.361,4.181-1.686c1.405-0.324,2.907-0.486,4.508-0.486
		c2.593,0,5.002,0.378,7.229,1.135c2.226,0.756,3.34,1.611,3.34,2.561c0,0.389-0.152,0.801-0.454,1.232
		c-0.303,0.433-0.649,0.649-1.038,0.649c-0.216,0-0.692-0.205-1.426-0.617c-0.736-0.41-1.784-0.821-3.144-1.232
		c-1.362-0.41-2.886-0.615-4.572-0.615c-2.811,0-5.167,0.615-7.068,1.848c-1.904,1.232-2.854,3.319-2.854,6.258
		c0,1.772,0.399,3.253,1.2,4.441c0.8,1.19,1.837,2.107,3.112,2.756c1.274,0.649,2.68,1.232,4.215,1.752
		c1.534,0.518,3.08,1.101,4.636,1.75c1.556,0.649,2.971,1.449,4.247,2.399c1.276,0.952,2.313,2.303,3.114,4.053
		c0.798,1.75,1.199,3.858,1.199,6.322c0,4.409-1.199,7.707-3.598,9.888c-2.401,2.184-5.609,3.276-9.63,3.276
		c-3.718,0-6.798-0.8-9.241-2.399C266.968,93.296,265.747,91.848,265.747,90.551z"/>
	<path fill="#FFFFFF" d="M299.919,95.479V50.866c0-0.821,0.497-1.274,1.492-1.362h11.672c3.933,0,7.09,1.093,9.468,3.276
		c2.377,2.183,3.566,5.609,3.566,10.278v0.713c0,4.668-1.199,8.106-3.599,10.31c-2.399,2.205-5.566,3.308-9.499,3.308h-9.856v18.092
		c0,0.952-0.542,1.426-1.622,1.426C300.459,96.906,299.919,96.431,299.919,95.479z M303.163,74.405h9.856
		c3.154,0,5.587-0.875,7.295-2.627c1.707-1.75,2.561-4.398,2.561-7.944v-0.713c0-3.502-0.854-6.127-2.561-7.878
		c-1.708-1.75-4.141-2.625-7.295-2.625h-9.856V74.405z"/>
	<path fill="#FFFFFF" d="M333.12,83.678V63.121c0-4.71,1.178-8.159,3.534-10.342c2.356-2.183,5.523-3.276,9.5-3.276
		c3.933,0,7.101,1.093,9.5,3.276c2.399,2.183,3.598,5.631,3.598,10.342v20.557c0,4.712-1.199,8.16-3.598,10.342
		c-2.399,2.184-5.567,3.276-9.5,3.276c-3.978,0-7.144-1.091-9.5-3.276C334.298,91.838,333.12,88.389,333.12,83.678z M336.362,83.678
		c0,7.003,3.264,10.505,9.792,10.505c3.156,0,5.587-0.877,7.295-2.627c1.707-1.752,2.561-4.377,2.561-7.878V63.121
		c0-3.502-0.854-6.127-2.561-7.878c-1.708-1.75-4.14-2.625-7.295-2.625c-6.527,0-9.792,3.502-9.792,10.504V83.678z"/>
	<path fill="#FFFFFF" d="M363.988,52.162c-0.26-0.301-0.389-0.67-0.389-1.103c0-0.431,0.13-0.798,0.389-1.101
		c0.26-0.303,0.583-0.455,0.973-0.455h25.679c0.907,0,1.361,0.498,1.361,1.492c0,1.082-0.454,1.622-1.361,1.622h-11.154v42.862
		c0,0.952-0.542,1.426-1.62,1.426c-1.082,0-1.622-0.475-1.622-1.426V52.617h-11.282C364.571,52.617,364.247,52.465,363.988,52.162z"
		/>
</g>
</svg>
