<?xml version="1.0" encoding="utf-8"?>
<!-- Generator: Adobe Illustrator 17.1.0, SVG Export Plug-In . SVG Version: 6.00 Build 0)  -->
<!DOCTYPE svg PUBLIC "-//W3C//DTD SVG 1.1//EN" "http://www.w3.org/Graphics/SVG/1.1/DTD/svg11.dtd">
<svg version="1.1" id="Calque_1" xmlns="http://www.w3.org/2000/svg" xmlns:xlink="http://www.w3.org/1999/xlink" x="0px" y="0px"
	 viewBox="0 0 103 103" enable-background="new 0 0 103 103" xml:space="preserve">
<path fill="#D94E39" d="M70.97,37.074l-27.541,27.44l-8.474-14.628c-0.706-1.311-2.32-1.715-3.632-1.009
	c-1.311,0.706-1.715,2.32-1.009,3.632l10.189,17.654c0.101,0.202,0.303,0.404,0.404,0.504l0,0l0,0
	c0.202,0.202,0.504,0.404,0.807,0.504c0.101,0,0.101,0.101,0.202,0.101c0.303,0.101,0.605,0.202,0.908,0.202l0,0l0,0l0,0
	c0.303,0,0.605-0.101,0.908-0.202c0.101,0,0.101-0.101,0.202-0.101s0.202-0.101,0.202-0.101c0.101-0.101,0.202-0.202,0.303-0.202
	c0.101-0.101,0.202-0.101,0.303-0.202l29.962-29.962c1.009-1.009,1.009-2.724,0-3.733C73.694,36.065,71.979,36.065,70.97,37.074z"/>
<path fill="#D94E39" d="M51.5,103c-6.952,0-13.697-1.362-20.046-4.047c-6.133-2.594-11.64-6.307-16.37-11.037
	c-4.729-4.729-8.443-10.237-11.037-16.37C1.362,65.197,0,58.452,0,51.5s1.362-13.697,4.047-20.046
	c2.594-6.133,6.307-11.64,11.037-16.37s10.237-8.443,16.37-11.037C37.803,1.362,44.548,0,51.5,0s13.697,1.362,20.046,4.047
	c6.133,2.594,11.64,6.307,16.37,11.037s8.443,10.237,11.037,16.37C101.638,37.803,103,44.548,103,51.5s-1.362,13.697-4.047,20.046
	c-2.594,6.133-6.307,11.64-11.037,16.37c-4.729,4.729-10.237,8.443-16.37,11.037C65.197,101.638,58.452,103,51.5,103z M51.5,1.513
	c-6.749,0-13.295,1.322-19.457,3.928c-5.952,2.518-11.298,6.122-15.889,10.713c-4.591,4.591-8.195,9.937-10.713,15.889
	C2.835,38.205,1.513,44.752,1.513,51.5s1.321,13.295,3.928,19.457c2.518,5.952,6.122,11.298,10.713,15.889
	c4.591,4.591,9.937,8.195,15.889,10.713c6.162,2.606,12.708,3.928,19.457,3.928s13.295-1.322,19.457-3.928
	c5.952-2.518,11.298-6.122,15.889-10.713c4.591-4.591,8.195-9.937,10.713-15.889c2.606-6.162,3.928-12.708,3.928-19.457
	s-1.321-13.295-3.928-19.457c-2.518-5.952-6.122-11.298-10.713-15.889c-4.591-4.591-9.937-8.195-15.889-10.713
	C64.795,2.835,58.248,1.513,51.5,1.513z"/>
</svg>
