<?xml version="1.0" encoding="utf-8"?>
<!-- Generator: Adobe Illustrator 17.1.0, SVG Export Plug-In . SVG Version: 6.00 Build 0)  -->
<!DOCTYPE svg PUBLIC "-//W3C//DTD SVG 1.1//EN" "http://www.w3.org/Graphics/SVG/1.1/DTD/svg11.dtd">
<svg version="1.1" id="Calque_1" xmlns="http://www.w3.org/2000/svg" xmlns:xlink="http://www.w3.org/1999/xlink" x="0px" y="0px"
	 viewBox="0 0 173 173" enable-background="new 0 0 173 173" xml:space="preserve">
<path fill="#D94E39" d="M86.5,173c-11.7,0-23-2.3-33.7-6.8c-10.3-4.4-19.6-10.6-27.5-18.5c-7.9-7.9-14.2-17.2-18.5-27.5
	C2.3,109.5,0,98.2,0,86.5s2.3-23,6.8-33.7c4.4-10.3,10.6-19.6,18.5-27.5S42.5,11.2,52.8,6.8C63.5,2.3,74.8,0,86.5,0s23,2.3,33.7,6.8
	c10.3,4.4,19.6,10.6,27.5,18.5c7.9,7.9,14.2,17.2,18.5,27.5c4.5,10.7,6.8,22,6.8,33.7s-2.3,23-6.8,33.7
	c-4.4,10.3-10.6,19.6-18.5,27.5c-7.9,7.9-17.2,14.2-27.5,18.5C109.5,170.7,98.2,173,86.5,173z M86.5,2.5c-11.3,0-22.3,2.2-32.7,6.6
	c-10,4.2-19,10.3-26.7,18s-13.8,16.7-18,26.7C4.8,64.2,2.5,75.2,2.5,86.5s2.2,22.3,6.6,32.7c4.2,10,10.3,19,18,26.7
	c7.7,7.7,16.7,13.8,26.7,18c10.3,4.4,21.3,6.6,32.7,6.6s22.3-2.2,32.7-6.6c10-4.2,19-10.3,26.7-18c7.7-7.7,13.8-16.7,18-26.7
	c4.4-10.3,6.6-21.3,6.6-32.7s-2.2-22.3-6.6-32.7c-4.2-10-10.3-19-18-26.7c-7.7-7.7-16.7-13.8-26.7-18C108.8,4.8,97.8,2.5,86.5,2.5z"
	/>
<g>
	<g>
		<g>
			<rect id="p_1_" x="40.3" y="41.1" fill="#D94E39" width="3.2" height="3.2"/>
			<path fill="#D94E39" d="M44,44.8h-4.2v-4.2H44V44.8z M40.8,43.8H43v-2.2h-2.2V43.8z"/>
		</g>
	</g>
	<g>
		<g>
			<rect id="p_2_" x="40.3" y="44.2" fill="#D94E39" width="3.2" height="3.2"/>
			<path fill="#D94E39" d="M44,47.9h-4.2v-4.2H44V47.9z M40.8,46.9H43v-2.2h-2.2V46.9z"/>
		</g>
	</g>
	<g>
		<g>
			<rect id="p_3_" x="40.3" y="47.4" fill="#D94E39" width="3.2" height="3.2"/>
			<path fill="#D94E39" d="M44,51.1h-4.2v-4.2H44V51.1z M40.8,50.1H43v-2.2h-2.2V50.1z"/>
		</g>
	</g>
	<g>
		<g>
			<rect id="p_4_" x="40.3" y="50.6" fill="#D94E39" width="3.2" height="3.2"/>
			<path fill="#D94E39" d="M44,54.3h-4.2v-4.2H44V54.3z M40.8,53.3H43v-2.2h-2.2V53.3z"/>
		</g>
	</g>
	<g>
		<g>
			<rect id="p_5_" x="40.3" y="53.8" fill="#D94E39" width="3.2" height="3.2"/>
			<path fill="#D94E39" d="M44,57.5h-4.2v-4.2H44V57.5z M40.8,56.5H43v-2.2h-2.2V56.5z"/>
		</g>
	</g>
	<g>
		<g>
			<rect id="p_6_" x="40.3" y="57" fill="#D94E39" width="3.2" height="3.2"/>
			<path fill="#D94E39" d="M44,60.7h-4.2v-4.2H44V60.7z M40.8,59.7H43v-2.2h-2.2V59.7z"/>
		</g>
	</g>
	<g>
		<g>
			<rect id="p_7_" x="40.3" y="60.1" fill="#D94E39" width="3.2" height="3.2"/>
			<path fill="#D94E39" d="M44,63.8h-4.2v-4.2H44V63.8z M40.8,62.8H43v-2.2h-2.2V62.8z"/>
		</g>
	</g>
	<g>
		<g>
			<rect id="p_8_" x="40.3" y="66.5" fill="#D94E39" width="3.2" height="3.2"/>
			<path fill="#D94E39" d="M44,70.2h-4.2V66H44V70.2z M40.8,69.2H43V67h-2.2V69.2z"/>
		</g>
	</g>
	<g>
		<g>
			<rect id="p_9_" x="40.3" y="72.9" fill="#D94E39" width="3.2" height="3.2"/>
			<path fill="#D94E39" d="M44,76.6h-4.2v-4.2H44V76.6z M40.8,75.6H43v-2.2h-2.2V75.6z"/>
		</g>
	</g>
	<g>
		<g>
			<rect id="p_10_" x="40.3" y="88.8" fill="#D94E39" width="3.2" height="3.2"/>
			<path fill="#D94E39" d="M44,92.5h-4.2v-4.2H44V92.5z M40.8,91.5H43v-2.2h-2.2V91.5z"/>
		</g>
	</g>
	<g>
		<g>
			<rect id="p_11_" x="40.3" y="91.9" fill="#D94E39" width="3.2" height="3.2"/>
			<path fill="#D94E39" d="M44,95.6h-4.2v-4.2H44V95.6z M40.8,94.6H43v-2.2h-2.2V94.6z"/>
		</g>
	</g>
	<g>
		<g>
			<rect id="p_12_" x="40.3" y="95.1" fill="#D94E39" width="3.2" height="3.2"/>
			<path fill="#D94E39" d="M44,98.8h-4.2v-4.2H44V98.8z M40.8,97.8H43v-2.2h-2.2V97.8z"/>
		</g>
	</g>
	<g>
		<g>
			<rect id="p_13_" x="40.3" y="101.5" fill="#D94E39" width="3.2" height="3.2"/>
			<path fill="#D94E39" d="M44,105.2h-4.2V101H44V105.2z M40.8,104.2H43V102h-2.2V104.2z"/>
		</g>
	</g>
	<g>
		<g>
			<rect id="p_14_" x="40.3" y="111" fill="#D94E39" width="3.2" height="3.2"/>
			<path fill="#D94E39" d="M44,114.7h-4.2v-4.2H44V114.7z M40.8,113.7H43v-2.2h-2.2V113.7z"/>
		</g>
	</g>
	<g>
		<g>
			<rect id="p_15_" x="40.3" y="114.2" fill="#D94E39" width="3.2" height="3.2"/>
			<path fill="#D94E39" d="M44,117.9h-4.2v-4.2H44V117.9z M40.8,116.9H43v-2.2h-2.2V116.9z"/>
		</g>
	</g>
	<g>
		<g>
			<rect id="p_16_" x="40.3" y="117.4" fill="#D94E39" width="3.2" height="3.2"/>
			<path fill="#D94E39" d="M44,121.1h-4.2v-4.2H44V121.1z M40.8,120.1H43v-2.2h-2.2V120.1z"/>
		</g>
	</g>
	<g>
		<g>
			<rect id="p_17_" x="40.3" y="120.6" fill="#D94E39" width="3.2" height="3.2"/>
			<path fill="#D94E39" d="M44,124.3h-4.2v-4.2H44V124.3z M40.8,123.3H43v-2.2h-2.2V123.3z"/>
		</g>
	</g>
	<g>
		<g>
			<rect id="p_18_" x="40.3" y="123.7" fill="#D94E39" width="3.2" height="3.2"/>
			<path fill="#D94E39" d="M44,127.4h-4.2v-4.2H44V127.4z M40.8,126.4H43v-2.2h-2.2V126.4z"/>
		</g>
	</g>
	<g>
		<g>
			<rect id="p_19_" x="40.3" y="126.9" fill="#D94E39" width="3.2" height="3.2"/>
			<path fill="#D94E39" d="M44,130.6h-4.2v-4.2H44V130.6z M40.8,129.6H43v-2.2h-2.2V129.6z"/>
		</g>
	</g>
	<g>
		<g>
			<rect id="p_20_" x="40.3" y="130.1" fill="#D94E39" width="3.2" height="3.2"/>
			<path fill="#D94E39" d="M44,133.8h-4.2v-4.2H44V133.8z M40.8,132.8H43v-2.2h-2.2V132.8z"/>
		</g>
	</g>
	<g>
		<g>
			<rect id="p_21_" x="43.5" y="41.1" fill="#D94E39" width="3.2" height="3.2"/>
			<path fill="#D94E39" d="M47.2,44.8H43v-4.2h4.2V44.8z M44,43.8h2.2v-2.2H44V43.8z"/>
		</g>
	</g>
	<g>
		<g>
			<rect id="p_22_" x="43.5" y="60.1" fill="#D94E39" width="3.2" height="3.2"/>
			<path fill="#D94E39" d="M47.2,63.8H43v-4.2h4.2V63.8z M44,62.8h2.2v-2.2H44V62.8z"/>
		</g>
	</g>
	<g>
		<g>
			<rect id="p_23_" x="43.5" y="66.5" fill="#D94E39" width="3.2" height="3.2"/>
			<path fill="#D94E39" d="M47.2,70.2H43V66h4.2V70.2z M44,69.2h2.2V67H44V69.2z"/>
		</g>
	</g>
	<g>
		<g>
			<rect id="p_24_" x="43.5" y="69.7" fill="#D94E39" width="3.2" height="3.2"/>
			<path fill="#D94E39" d="M47.2,73.4H43v-4.2h4.2V73.4z M44,72.4h2.2v-2.2H44V72.4z"/>
		</g>
	</g>
	<g>
		<g>
			<rect id="p_25_" x="43.5" y="76" fill="#D94E39" width="3.2" height="3.2"/>
			<path fill="#D94E39" d="M47.2,79.7H43v-4.2h4.2V79.7z M44,78.7h2.2v-2.2H44V78.7z"/>
		</g>
	</g>
	<g>
		<g>
			<rect id="p_26_" x="43.5" y="82.4" fill="#D94E39" width="3.2" height="3.2"/>
			<path fill="#D94E39" d="M47.2,86.1H43v-4.2h4.2V86.1z M44,85.1h2.2v-2.2H44V85.1z"/>
		</g>
	</g>
	<g>
		<g>
			<rect id="p_27_" x="43.5" y="88.8" fill="#D94E39" width="3.2" height="3.2"/>
			<path fill="#D94E39" d="M47.2,92.5H43v-4.2h4.2V92.5z M44,91.5h2.2v-2.2H44V91.5z"/>
		</g>
	</g>
	<g>
		<g>
			<rect id="p_28_" x="43.5" y="91.9" fill="#D94E39" width="3.2" height="3.2"/>
			<path fill="#D94E39" d="M47.2,95.6H43v-4.2h4.2V95.6z M44,94.6h2.2v-2.2H44V94.6z"/>
		</g>
	</g>
	<g>
		<g>
			<rect id="p_29_" x="43.5" y="98.3" fill="#D94E39" width="3.2" height="3.2"/>
			<path fill="#D94E39" d="M47.2,102H43v-4.2h4.2V102z M44,101h2.2v-2.2H44V101z"/>
		</g>
	</g>
	<g>
		<g>
			<rect id="p_30_" x="43.5" y="101.5" fill="#D94E39" width="3.2" height="3.2"/>
			<path fill="#D94E39" d="M47.2,105.2H43V101h4.2V105.2z M44,104.2h2.2V102H44V104.2z"/>
		</g>
	</g>
	<g>
		<g>
			<rect id="p_31_" x="43.5" y="104.7" fill="#D94E39" width="3.2" height="3.2"/>
			<path fill="#D94E39" d="M47.2,108.4H43v-4.2h4.2V108.4z M44,107.4h2.2v-2.2H44V107.4z"/>
		</g>
	</g>
	<g>
		<g>
			<rect id="p_32_" x="43.5" y="111" fill="#D94E39" width="3.2" height="3.2"/>
			<path fill="#D94E39" d="M47.2,114.7H43v-4.2h4.2V114.7z M44,113.7h2.2v-2.2H44V113.7z"/>
		</g>
	</g>
	<g>
		<g>
			<rect id="p_33_" x="43.5" y="130.1" fill="#D94E39" width="3.2" height="3.2"/>
			<path fill="#D94E39" d="M47.2,133.8H43v-4.2h4.2V133.8z M44,132.8h2.2v-2.2H44V132.8z"/>
		</g>
	</g>
	<g>
		<g>
			<rect id="p_34_" x="46.6" y="41.1" fill="#D94E39" width="3.2" height="3.2"/>
			<path fill="#D94E39" d="M50.3,44.8h-4.2v-4.2h4.2V44.8z M47.1,43.8h2.2v-2.2h-2.2V43.8z"/>
		</g>
	</g>
	<g>
		<g>
			<rect id="p_35_" x="46.6" y="47.4" fill="#D94E39" width="3.2" height="3.2"/>
			<path fill="#D94E39" d="M50.3,51.1h-4.2v-4.2h4.2V51.1z M47.1,50.1h2.2v-2.2h-2.2V50.1z"/>
		</g>
	</g>
	<g>
		<g>
			<rect id="p_36_" x="46.6" y="50.6" fill="#D94E39" width="3.2" height="3.2"/>
			<path fill="#D94E39" d="M50.3,54.3h-4.2v-4.2h4.2V54.3z M47.1,53.3h2.2v-2.2h-2.2V53.3z"/>
		</g>
	</g>
	<g>
		<g>
			<rect id="p_37_" x="46.6" y="53.8" fill="#D94E39" width="3.2" height="3.2"/>
			<path fill="#D94E39" d="M50.3,57.5h-4.2v-4.2h4.2V57.5z M47.1,56.5h2.2v-2.2h-2.2V56.5z"/>
		</g>
	</g>
	<g>
		<g>
			<rect id="p_38_" x="46.6" y="60.1" fill="#D94E39" width="3.2" height="3.2"/>
			<path fill="#D94E39" d="M50.3,63.8h-4.2v-4.2h4.2V63.8z M47.1,62.8h2.2v-2.2h-2.2V62.8z"/>
		</g>
	</g>
	<g>
		<g>
			<rect id="p_39_" x="46.6" y="72.9" fill="#D94E39" width="3.2" height="3.2"/>
			<path fill="#D94E39" d="M50.3,76.6h-4.2v-4.2h4.2V76.6z M47.1,75.6h2.2v-2.2h-2.2V75.6z"/>
		</g>
	</g>
	<g>
		<g>
			<rect id="p_40_" x="46.6" y="79.2" fill="#D94E39" width="3.2" height="3.2"/>
			<path fill="#D94E39" d="M50.3,82.9h-4.2v-4.2h4.2V82.9z M47.1,81.9h2.2v-2.2h-2.2V81.9z"/>
		</g>
	</g>
	<g>
		<g>
			<rect id="p_41_" x="46.6" y="88.8" fill="#D94E39" width="3.2" height="3.2"/>
			<path fill="#D94E39" d="M50.3,92.5h-4.2v-4.2h4.2V92.5z M47.1,91.5h2.2v-2.2h-2.2V91.5z"/>
		</g>
	</g>
	<g>
		<g>
			<rect id="p_42_" x="46.6" y="91.9" fill="#D94E39" width="3.2" height="3.2"/>
			<path fill="#D94E39" d="M50.3,95.6h-4.2v-4.2h4.2V95.6z M47.1,94.6h2.2v-2.2h-2.2V94.6z"/>
		</g>
	</g>
	<g>
		<g>
			<rect id="p_43_" x="46.6" y="95.1" fill="#D94E39" width="3.2" height="3.2"/>
			<path fill="#D94E39" d="M50.3,98.8h-4.2v-4.2h4.2V98.8z M47.1,97.8h2.2v-2.2h-2.2V97.8z"/>
		</g>
	</g>
	<g>
		<g>
			<rect id="p_44_" x="46.6" y="111" fill="#D94E39" width="3.2" height="3.2"/>
			<path fill="#D94E39" d="M50.3,114.7h-4.2v-4.2h4.2V114.7z M47.1,113.7h2.2v-2.2h-2.2V113.7z"/>
		</g>
	</g>
	<g>
		<g>
			<rect id="p_45_" x="46.6" y="117.4" fill="#D94E39" width="3.2" height="3.2"/>
			<path fill="#D94E39" d="M50.3,121.1h-4.2v-4.2h4.2V121.1z M47.1,120.1h2.2v-2.2h-2.2V120.1z"/>
		</g>
	</g>
	<g>
		<g>
			<rect id="p_46_" x="46.6" y="120.6" fill="#D94E39" width="3.2" height="3.2"/>
			<path fill="#D94E39" d="M50.3,124.3h-4.2v-4.2h4.2V124.3z M47.1,123.3h2.2v-2.2h-2.2V123.3z"/>
		</g>
	</g>
	<g>
		<g>
			<rect id="p_47_" x="46.6" y="123.7" fill="#D94E39" width="3.2" height="3.2"/>
			<path fill="#D94E39" d="M50.3,127.4h-4.2v-4.2h4.2V127.4z M47.1,126.4h2.2v-2.2h-2.2V126.4z"/>
		</g>
	</g>
	<g>
		<g>
			<rect id="p_48_" x="46.6" y="130.1" fill="#D94E39" width="3.2" height="3.2"/>
			<path fill="#D94E39" d="M50.3,133.8h-4.2v-4.2h4.2V133.8z M47.1,132.8h2.2v-2.2h-2.2V132.8z"/>
		</g>
	</g>
	<g>
		<g>
			<rect id="p_49_" x="49.8" y="41.1" fill="#D94E39" width="3.2" height="3.2"/>
			<path fill="#D94E39" d="M53.5,44.8h-4.2v-4.2h4.2V44.8z M50.3,43.8h2.2v-2.2h-2.2V43.8z"/>
		</g>
	</g>
	<g>
		<g>
			<rect id="p_50_" x="49.8" y="47.4" fill="#D94E39" width="3.2" height="3.2"/>
			<path fill="#D94E39" d="M53.5,51.1h-4.2v-4.2h4.2V51.1z M50.3,50.1h2.2v-2.2h-2.2V50.1z"/>
		</g>
	</g>
	<g>
		<g>
			<rect id="p_51_" x="49.8" y="50.6" fill="#D94E39" width="3.2" height="3.2"/>
			<path fill="#D94E39" d="M53.5,54.3h-4.2v-4.2h4.2V54.3z M50.3,53.3h2.2v-2.2h-2.2V53.3z"/>
		</g>
	</g>
	<g>
		<g>
			<rect id="p_52_" x="49.8" y="53.8" fill="#D94E39" width="3.2" height="3.2"/>
			<path fill="#D94E39" d="M53.5,57.5h-4.2v-4.2h4.2V57.5z M50.3,56.5h2.2v-2.2h-2.2V56.5z"/>
		</g>
	</g>
	<g>
		<g>
			<rect id="p_53_" x="49.8" y="60.1" fill="#D94E39" width="3.2" height="3.2"/>
			<path fill="#D94E39" d="M53.5,63.8h-4.2v-4.2h4.2V63.8z M50.3,62.8h2.2v-2.2h-2.2V62.8z"/>
		</g>
	</g>
	<g>
		<g>
			<rect id="p_54_" x="49.8" y="66.5" fill="#D94E39" width="3.2" height="3.2"/>
			<path fill="#D94E39" d="M53.5,70.2h-4.2V66h4.2V70.2z M50.3,69.2h2.2V67h-2.2V69.2z"/>
		</g>
	</g>
	<g>
		<g>
			<rect id="p_55_" x="49.8" y="72.9" fill="#D94E39" width="3.2" height="3.2"/>
			<path fill="#D94E39" d="M53.5,76.6h-4.2v-4.2h4.2V76.6z M50.3,75.6h2.2v-2.2h-2.2V75.6z"/>
		</g>
	</g>
	<g>
		<g>
			<rect id="p_56_" x="49.8" y="76" fill="#D94E39" width="3.2" height="3.2"/>
			<path fill="#D94E39" d="M53.5,79.7h-4.2v-4.2h4.2V79.7z M50.3,78.7h2.2v-2.2h-2.2V78.7z"/>
		</g>
	</g>
	<g>
		<g>
			<rect id="p_57_" x="49.8" y="82.4" fill="#D94E39" width="3.2" height="3.2"/>
			<path fill="#D94E39" d="M53.5,86.1h-4.2v-4.2h4.2V86.1z M50.3,85.1h2.2v-2.2h-2.2V85.1z"/>
		</g>
	</g>
	<g>
		<g>
			<rect id="p_58_" x="49.8" y="88.8" fill="#D94E39" width="3.2" height="3.2"/>
			<path fill="#D94E39" d="M53.5,92.5h-4.2v-4.2h4.2V92.5z M50.3,91.5h2.2v-2.2h-2.2V91.5z"/>
		</g>
	</g>
	<g>
		<g>
			<rect id="p_59_" x="49.8" y="95.1" fill="#D94E39" width="3.2" height="3.2"/>
			<path fill="#D94E39" d="M53.5,98.8h-4.2v-4.2h4.2V98.8z M50.3,97.8h2.2v-2.2h-2.2V97.8z"/>
		</g>
	</g>
	<g>
		<g>
			<rect id="p_60_" x="49.8" y="104.7" fill="#D94E39" width="3.2" height="3.2"/>
			<path fill="#D94E39" d="M53.5,108.4h-4.2v-4.2h4.2V108.4z M50.3,107.4h2.2v-2.2h-2.2V107.4z"/>
		</g>
	</g>
	<g>
		<g>
			<rect id="p_61_" x="49.8" y="111" fill="#D94E39" width="3.2" height="3.2"/>
			<path fill="#D94E39" d="M53.5,114.7h-4.2v-4.2h4.2V114.7z M50.3,113.7h2.2v-2.2h-2.2V113.7z"/>
		</g>
	</g>
	<g>
		<g>
			<rect id="p_62_" x="49.8" y="117.4" fill="#D94E39" width="3.2" height="3.2"/>
			<path fill="#D94E39" d="M53.5,121.1h-4.2v-4.2h4.2V121.1z M50.3,120.1h2.2v-2.2h-2.2V120.1z"/>
		</g>
	</g>
	<g>
		<g>
			<rect id="p_63_" x="49.8" y="120.6" fill="#D94E39" width="3.2" height="3.2"/>
			<path fill="#D94E39" d="M53.5,124.3h-4.2v-4.2h4.2V124.3z M50.3,123.3h2.2v-2.2h-2.2V123.3z"/>
		</g>
	</g>
	<g>
		<g>
			<rect id="p_64_" x="49.8" y="123.7" fill="#D94E39" width="3.2" height="3.2"/>
			<path fill="#D94E39" d="M53.5,127.4h-4.2v-4.2h4.2V127.4z M50.3,126.4h2.2v-2.2h-2.2V126.4z"/>
		</g>
	</g>
	<g>
		<g>
			<rect id="p_65_" x="49.8" y="130.1" fill="#D94E39" width="3.2" height="3.2"/>
			<path fill="#D94E39" d="M53.5,133.8h-4.2v-4.2h4.2V133.8z M50.3,132.8h2.2v-2.2h-2.2V132.8z"/>
		</g>
	</g>
	<g>
		<g>
			<rect id="p_66_" x="53" y="41.1" fill="#D94E39" width="3.2" height="3.2"/>
			<path fill="#D94E39" d="M56.7,44.8h-4.2v-4.2h4.2V44.8z M53.5,43.8h2.2v-2.2h-2.2V43.8z"/>
		</g>
	</g>
	<g>
		<g>
			<rect id="p_67_" x="53" y="47.4" fill="#D94E39" width="3.2" height="3.2"/>
			<path fill="#D94E39" d="M56.7,51.1h-4.2v-4.2h4.2V51.1z M53.5,50.1h2.2v-2.2h-2.2V50.1z"/>
		</g>
	</g>
	<g>
		<g>
			<rect id="p_68_" x="53" y="50.6" fill="#D94E39" width="3.2" height="3.2"/>
			<path fill="#D94E39" d="M56.7,54.3h-4.2v-4.2h4.2V54.3z M53.5,53.3h2.2v-2.2h-2.2V53.3z"/>
		</g>
	</g>
	<g>
		<g>
			<rect id="p_69_" x="53" y="53.8" fill="#D94E39" width="3.2" height="3.2"/>
			<path fill="#D94E39" d="M56.7,57.5h-4.2v-4.2h4.2V57.5z M53.5,56.5h2.2v-2.2h-2.2V56.5z"/>
		</g>
	</g>
	<g>
		<g>
			<rect id="p_70_" x="53" y="60.1" fill="#D94E39" width="3.2" height="3.2"/>
			<path fill="#D94E39" d="M56.7,63.8h-4.2v-4.2h4.2V63.8z M53.5,62.8h2.2v-2.2h-2.2V62.8z"/>
		</g>
	</g>
	<g>
		<g>
			<rect id="p_71_" x="53" y="72.9" fill="#D94E39" width="3.2" height="3.2"/>
			<path fill="#D94E39" d="M56.7,76.6h-4.2v-4.2h4.2V76.6z M53.5,75.6h2.2v-2.2h-2.2V75.6z"/>
		</g>
	</g>
	<g>
		<g>
			<rect id="p_72_" x="53" y="85.6" fill="#D94E39" width="3.2" height="3.2"/>
			<path fill="#D94E39" d="M56.7,89.3h-4.2v-4.2h4.2V89.3z M53.5,88.3h2.2v-2.2h-2.2V88.3z"/>
		</g>
	</g>
	<g>
		<g>
			<rect id="p_73_" x="53" y="111" fill="#D94E39" width="3.2" height="3.2"/>
			<path fill="#D94E39" d="M56.7,114.7h-4.2v-4.2h4.2V114.7z M53.5,113.7h2.2v-2.2h-2.2V113.7z"/>
		</g>
	</g>
	<g>
		<g>
			<rect id="p_74_" x="53" y="117.4" fill="#D94E39" width="3.2" height="3.2"/>
			<path fill="#D94E39" d="M56.7,121.1h-4.2v-4.2h4.2V121.1z M53.5,120.1h2.2v-2.2h-2.2V120.1z"/>
		</g>
	</g>
	<g>
		<g>
			<rect id="p_75_" x="53" y="120.6" fill="#D94E39" width="3.2" height="3.2"/>
			<path fill="#D94E39" d="M56.7,124.3h-4.2v-4.2h4.2V124.3z M53.5,123.3h2.2v-2.2h-2.2V123.3z"/>
		</g>
	</g>
	<g>
		<g>
			<rect id="p_76_" x="53" y="123.7" fill="#D94E39" width="3.2" height="3.2"/>
			<path fill="#D94E39" d="M56.7,127.4h-4.2v-4.2h4.2V127.4z M53.5,126.4h2.2v-2.2h-2.2V126.4z"/>
		</g>
	</g>
	<g>
		<g>
			<rect id="p_77_" x="53" y="130.1" fill="#D94E39" width="3.2" height="3.2"/>
			<path fill="#D94E39" d="M56.7,133.8h-4.2v-4.2h4.2V133.8z M53.5,132.8h2.2v-2.2h-2.2V132.8z"/>
		</g>
	</g>
	<g>
		<g>
			<rect id="p_78_" x="56.2" y="41.1" fill="#D94E39" width="3.2" height="3.2"/>
			<path fill="#D94E39" d="M59.9,44.8h-4.2v-4.2h4.2V44.8z M56.7,43.8h2.2v-2.2h-2.2V43.8z"/>
		</g>
	</g>
	<g>
		<g>
			<rect id="p_79_" x="56.2" y="60.1" fill="#D94E39" width="3.2" height="3.2"/>
			<path fill="#D94E39" d="M59.9,63.8h-4.2v-4.2h4.2V63.8z M56.7,62.8h2.2v-2.2h-2.2V62.8z"/>
		</g>
	</g>
	<g>
		<g>
			<rect id="p_80_" x="56.2" y="69.7" fill="#D94E39" width="3.2" height="3.2"/>
			<path fill="#D94E39" d="M59.9,73.4h-4.2v-4.2h4.2V73.4z M56.7,72.4h2.2v-2.2h-2.2V72.4z"/>
		</g>
	</g>
	<g>
		<g>
			<rect id="p_81_" x="56.2" y="76" fill="#D94E39" width="3.2" height="3.2"/>
			<path fill="#D94E39" d="M59.9,79.7h-4.2v-4.2h4.2V79.7z M56.7,78.7h2.2v-2.2h-2.2V78.7z"/>
		</g>
	</g>
	<g>
		<g>
			<rect id="p_82_" x="56.2" y="79.2" fill="#D94E39" width="3.2" height="3.2"/>
			<path fill="#D94E39" d="M59.9,82.9h-4.2v-4.2h4.2V82.9z M56.7,81.9h2.2v-2.2h-2.2V81.9z"/>
		</g>
	</g>
	<g>
		<g>
			<rect id="p_83_" x="56.2" y="82.4" fill="#D94E39" width="3.2" height="3.2"/>
			<path fill="#D94E39" d="M59.9,86.1h-4.2v-4.2h4.2V86.1z M56.7,85.1h2.2v-2.2h-2.2V85.1z"/>
		</g>
	</g>
	<g>
		<g>
			<rect id="p_84_" x="56.2" y="85.6" fill="#D94E39" width="3.2" height="3.2"/>
			<path fill="#D94E39" d="M59.9,89.3h-4.2v-4.2h4.2V89.3z M56.7,88.3h2.2v-2.2h-2.2V88.3z"/>
		</g>
	</g>
	<g>
		<g>
			<rect id="p_85_" x="56.2" y="91.9" fill="#D94E39" width="3.2" height="3.2"/>
			<path fill="#D94E39" d="M59.9,95.6h-4.2v-4.2h4.2V95.6z M56.7,94.6h2.2v-2.2h-2.2V94.6z"/>
		</g>
	</g>
	<g>
		<g>
			<rect id="p_86_" x="56.2" y="98.3" fill="#D94E39" width="3.2" height="3.2"/>
			<path fill="#D94E39" d="M59.9,102h-4.2v-4.2h4.2V102z M56.7,101h2.2v-2.2h-2.2V101z"/>
		</g>
	</g>
	<g>
		<g>
			<rect id="p_87_" x="56.2" y="101.5" fill="#D94E39" width="3.2" height="3.2"/>
			<path fill="#D94E39" d="M59.9,105.2h-4.2V101h4.2V105.2z M56.7,104.2h2.2V102h-2.2V104.2z"/>
		</g>
	</g>
	<g>
		<g>
			<rect id="p_88_" x="56.2" y="111" fill="#D94E39" width="3.2" height="3.2"/>
			<path fill="#D94E39" d="M59.9,114.7h-4.2v-4.2h4.2V114.7z M56.7,113.7h2.2v-2.2h-2.2V113.7z"/>
		</g>
	</g>
	<g>
		<g>
			<rect id="p_89_" x="56.2" y="130.1" fill="#D94E39" width="3.2" height="3.2"/>
			<path fill="#D94E39" d="M59.9,133.8h-4.2v-4.2h4.2V133.8z M56.7,132.8h2.2v-2.2h-2.2V132.8z"/>
		</g>
	</g>
	<g>
		<g>
			<rect id="p_90_" x="59.4" y="41.1" fill="#D94E39" width="3.2" height="3.2"/>
			<path fill="#D94E39" d="M63.1,44.8h-4.2v-4.2h4.2V44.8z M59.9,43.8h2.2v-2.2h-2.2V43.8z"/>
		</g>
	</g>
	<g>
		<g>
			<rect id="p_91_" x="59.4" y="44.2" fill="#D94E39" width="3.2" height="3.2"/>
			<path fill="#D94E39" d="M63.1,47.9h-4.2v-4.2h4.2V47.9z M59.9,46.9h2.2v-2.2h-2.2V46.9z"/>
		</g>
	</g>
	<g>
		<g>
			<rect id="p_92_" x="59.4" y="47.4" fill="#D94E39" width="3.2" height="3.2"/>
			<path fill="#D94E39" d="M63.1,51.1h-4.2v-4.2h4.2V51.1z M59.9,50.1h2.2v-2.2h-2.2V50.1z"/>
		</g>
	</g>
	<g>
		<g>
			<rect id="p_93_" x="59.4" y="50.6" fill="#D94E39" width="3.2" height="3.2"/>
			<path fill="#D94E39" d="M63.1,54.3h-4.2v-4.2h4.2V54.3z M59.9,53.3h2.2v-2.2h-2.2V53.3z"/>
		</g>
	</g>
	<g>
		<g>
			<rect id="p_94_" x="59.4" y="53.8" fill="#D94E39" width="3.2" height="3.2"/>
			<path fill="#D94E39" d="M63.1,57.5h-4.2v-4.2h4.2V57.5z M59.9,56.5h2.2v-2.2h-2.2V56.5z"/>
		</g>
	</g>
	<g>
		<g>
			<rect id="p_95_" x="59.4" y="57" fill="#D94E39" width="3.2" height="3.2"/>
			<path fill="#D94E39" d="M63.1,60.7h-4.2v-4.2h4.2V60.7z M59.9,59.7h2.2v-2.2h-2.2V59.7z"/>
		</g>
	</g>
	<g>
		<g>
			<rect id="p_96_" x="59.4" y="60.1" fill="#D94E39" width="3.2" height="3.2"/>
			<path fill="#D94E39" d="M63.1,63.8h-4.2v-4.2h4.2V63.8z M59.9,62.8h2.2v-2.2h-2.2V62.8z"/>
		</g>
	</g>
	<g>
		<g>
			<rect id="p_97_" x="59.4" y="66.5" fill="#D94E39" width="3.2" height="3.2"/>
			<path fill="#D94E39" d="M63.1,70.2h-4.2V66h4.2V70.2z M59.9,69.2h2.2V67h-2.2V69.2z"/>
		</g>
	</g>
	<g>
		<g>
			<rect id="p_98_" x="59.4" y="72.9" fill="#D94E39" width="3.2" height="3.2"/>
			<path fill="#D94E39" d="M63.1,76.6h-4.2v-4.2h4.2V76.6z M59.9,75.6h2.2v-2.2h-2.2V75.6z"/>
		</g>
	</g>
	<g>
		<g>
			<rect id="p_99_" x="59.4" y="79.2" fill="#D94E39" width="3.2" height="3.2"/>
			<path fill="#D94E39" d="M63.1,82.9h-4.2v-4.2h4.2V82.9z M59.9,81.9h2.2v-2.2h-2.2V81.9z"/>
		</g>
	</g>
	<g>
		<g>
			<rect id="p_100_" x="59.4" y="85.6" fill="#D94E39" width="3.2" height="3.2"/>
			<path fill="#D94E39" d="M63.1,89.3h-4.2v-4.2h4.2V89.3z M59.9,88.3h2.2v-2.2h-2.2V88.3z"/>
		</g>
	</g>
	<g>
		<g>
			<rect id="p_101_" x="59.4" y="91.9" fill="#D94E39" width="3.2" height="3.2"/>
			<path fill="#D94E39" d="M63.1,95.6h-4.2v-4.2h4.2V95.6z M59.9,94.6h2.2v-2.2h-2.2V94.6z"/>
		</g>
	</g>
	<g>
		<g>
			<rect id="p_102_" x="59.4" y="98.3" fill="#D94E39" width="3.2" height="3.2"/>
			<path fill="#D94E39" d="M63.1,102h-4.2v-4.2h4.2V102z M59.9,101h2.2v-2.2h-2.2V101z"/>
		</g>
	</g>
	<g>
		<g>
			<rect id="p_103_" x="59.4" y="104.7" fill="#D94E39" width="3.2" height="3.2"/>
			<path fill="#D94E39" d="M63.1,108.4h-4.2v-4.2h4.2V108.4z M59.9,107.4h2.2v-2.2h-2.2V107.4z"/>
		</g>
	</g>
	<g>
		<g>
			<rect id="p_104_" x="59.4" y="111" fill="#D94E39" width="3.2" height="3.2"/>
			<path fill="#D94E39" d="M63.1,114.7h-4.2v-4.2h4.2V114.7z M59.9,113.7h2.2v-2.2h-2.2V113.7z"/>
		</g>
	</g>
	<g>
		<g>
			<rect id="p_105_" x="59.4" y="114.2" fill="#D94E39" width="3.2" height="3.2"/>
			<path fill="#D94E39" d="M63.1,117.9h-4.2v-4.2h4.2V117.9z M59.9,116.9h2.2v-2.2h-2.2V116.9z"/>
		</g>
	</g>
	<g>
		<g>
			<rect id="p_106_" x="59.4" y="117.4" fill="#D94E39" width="3.2" height="3.2"/>
			<path fill="#D94E39" d="M63.1,121.1h-4.2v-4.2h4.2V121.1z M59.9,120.1h2.2v-2.2h-2.2V120.1z"/>
		</g>
	</g>
	<g>
		<g>
			<rect id="p_107_" x="59.4" y="120.6" fill="#D94E39" width="3.2" height="3.2"/>
			<path fill="#D94E39" d="M63.1,124.3h-4.2v-4.2h4.2V124.3z M59.9,123.3h2.2v-2.2h-2.2V123.3z"/>
		</g>
	</g>
	<g>
		<g>
			<rect id="p_108_" x="59.4" y="123.7" fill="#D94E39" width="3.2" height="3.2"/>
			<path fill="#D94E39" d="M63.1,127.4h-4.2v-4.2h4.2V127.4z M59.9,126.4h2.2v-2.2h-2.2V126.4z"/>
		</g>
	</g>
	<g>
		<g>
			<rect id="p_109_" x="59.4" y="126.9" fill="#D94E39" width="3.2" height="3.2"/>
			<path fill="#D94E39" d="M63.1,130.6h-4.2v-4.2h4.2V130.6z M59.9,129.6h2.2v-2.2h-2.2V129.6z"/>
		</g>
	</g>
	<g>
		<g>
			<rect id="p_110_" x="59.4" y="130.1" fill="#D94E39" width="3.2" height="3.2"/>
			<path fill="#D94E39" d="M63.1,133.8h-4.2v-4.2h4.2V133.8z M59.9,132.8h2.2v-2.2h-2.2V132.8z"/>
		</g>
	</g>
	<g>
		<g>
			<rect id="p_111_" x="62.5" y="66.5" fill="#D94E39" width="3.2" height="3.2"/>
			<path fill="#D94E39" d="M66.2,70.2H62V66h4.2V70.2z M63,69.2h2.2V67H63V69.2z"/>
		</g>
	</g>
	<g>
		<g>
			<rect id="p_112_" x="62.5" y="69.7" fill="#D94E39" width="3.2" height="3.2"/>
			<path fill="#D94E39" d="M66.2,73.4H62v-4.2h4.2V73.4z M63,72.4h2.2v-2.2H63V72.4z"/>
		</g>
	</g>
	<g>
		<g>
			<rect id="p_113_" x="62.5" y="72.9" fill="#D94E39" width="3.2" height="3.2"/>
			<path fill="#D94E39" d="M66.2,76.6H62v-4.2h4.2V76.6z M63,75.6h2.2v-2.2H63V75.6z"/>
		</g>
	</g>
	<g>
		<g>
			<rect id="p_114_" x="62.5" y="79.2" fill="#D94E39" width="3.2" height="3.2"/>
			<path fill="#D94E39" d="M66.2,82.9H62v-4.2h4.2V82.9z M63,81.9h2.2v-2.2H63V81.9z"/>
		</g>
	</g>
	<g>
		<g>
			<rect id="p_115_" x="62.5" y="101.5" fill="#D94E39" width="3.2" height="3.2"/>
			<path fill="#D94E39" d="M66.2,105.2H62V101h4.2V105.2z M63,104.2h2.2V102H63V104.2z"/>
		</g>
	</g>
	<g>
		<g>
			<rect id="p_116_" x="62.5" y="104.7" fill="#D94E39" width="3.2" height="3.2"/>
			<path fill="#D94E39" d="M66.2,108.4H62v-4.2h4.2V108.4z M63,107.4h2.2v-2.2H63V107.4z"/>
		</g>
	</g>
	<g>
		<g>
			<rect id="p_117_" x="65.7" y="44.2" fill="#D94E39" width="3.2" height="3.2"/>
			<path fill="#D94E39" d="M69.4,47.9h-4.2v-4.2h4.2V47.9z M66.2,46.9h2.2v-2.2h-2.2V46.9z"/>
		</g>
	</g>
	<g>
		<g>
			<rect id="p_118_" x="65.7" y="47.4" fill="#D94E39" width="3.2" height="3.2"/>
			<path fill="#D94E39" d="M69.4,51.1h-4.2v-4.2h4.2V51.1z M66.2,50.1h2.2v-2.2h-2.2V50.1z"/>
		</g>
	</g>
	<g>
		<g>
			<rect id="p_119_" x="65.7" y="53.8" fill="#D94E39" width="3.2" height="3.2"/>
			<path fill="#D94E39" d="M69.4,57.5h-4.2v-4.2h4.2V57.5z M66.2,56.5h2.2v-2.2h-2.2V56.5z"/>
		</g>
	</g>
	<g>
		<g>
			<rect id="p_120_" x="65.7" y="57" fill="#D94E39" width="3.2" height="3.2"/>
			<path fill="#D94E39" d="M69.4,60.7h-4.2v-4.2h4.2V60.7z M66.2,59.7h2.2v-2.2h-2.2V59.7z"/>
		</g>
	</g>
	<g>
		<g>
			<rect id="p_121_" x="65.7" y="60.1" fill="#D94E39" width="3.2" height="3.2"/>
			<path fill="#D94E39" d="M69.4,63.8h-4.2v-4.2h4.2V63.8z M66.2,62.8h2.2v-2.2h-2.2V62.8z"/>
		</g>
	</g>
	<g>
		<g>
			<rect id="p_122_" x="65.7" y="63.3" fill="#D94E39" width="3.2" height="3.2"/>
			<path fill="#D94E39" d="M69.4,67h-4.2v-4.2h4.2V67z M66.2,66h2.2v-2.2h-2.2V66z"/>
		</g>
	</g>
	<g>
		<g>
			<rect id="p_123_" x="65.7" y="72.9" fill="#D94E39" width="3.2" height="3.2"/>
			<path fill="#D94E39" d="M69.4,76.6h-4.2v-4.2h4.2V76.6z M66.2,75.6h2.2v-2.2h-2.2V75.6z"/>
		</g>
	</g>
	<g>
		<g>
			<rect id="p_124_" x="65.7" y="76" fill="#D94E39" width="3.2" height="3.2"/>
			<path fill="#D94E39" d="M69.4,79.7h-4.2v-4.2h4.2V79.7z M66.2,78.7h2.2v-2.2h-2.2V78.7z"/>
		</g>
	</g>
	<g>
		<g>
			<rect id="p_125_" x="65.7" y="85.6" fill="#D94E39" width="3.2" height="3.2"/>
			<path fill="#D94E39" d="M69.4,89.3h-4.2v-4.2h4.2V89.3z M66.2,88.3h2.2v-2.2h-2.2V88.3z"/>
		</g>
	</g>
	<g>
		<g>
			<rect id="p_126_" x="65.7" y="88.8" fill="#D94E39" width="3.2" height="3.2"/>
			<path fill="#D94E39" d="M69.4,92.5h-4.2v-4.2h4.2V92.5z M66.2,91.5h2.2v-2.2h-2.2V91.5z"/>
		</g>
	</g>
	<g>
		<g>
			<rect id="p_127_" x="65.7" y="91.9" fill="#D94E39" width="3.2" height="3.2"/>
			<path fill="#D94E39" d="M69.4,95.6h-4.2v-4.2h4.2V95.6z M66.2,94.6h2.2v-2.2h-2.2V94.6z"/>
		</g>
	</g>
	<g>
		<g>
			<rect id="p_128_" x="65.7" y="98.3" fill="#D94E39" width="3.2" height="3.2"/>
			<path fill="#D94E39" d="M69.4,102h-4.2v-4.2h4.2V102z M66.2,101h2.2v-2.2h-2.2V101z"/>
		</g>
	</g>
	<g>
		<g>
			<rect id="p_129_" x="65.7" y="104.7" fill="#D94E39" width="3.2" height="3.2"/>
			<path fill="#D94E39" d="M69.4,108.4h-4.2v-4.2h4.2V108.4z M66.2,107.4h2.2v-2.2h-2.2V107.4z"/>
		</g>
	</g>
	<g>
		<g>
			<rect id="p_130_" x="65.7" y="107.8" fill="#D94E39" width="3.2" height="3.2"/>
			<path fill="#D94E39" d="M69.4,111.5h-4.2v-4.2h4.2V111.5z M66.2,110.5h2.2v-2.2h-2.2V110.5z"/>
		</g>
	</g>
	<g>
		<g>
			<rect id="p_131_" x="65.7" y="111" fill="#D94E39" width="3.2" height="3.2"/>
			<path fill="#D94E39" d="M69.4,114.7h-4.2v-4.2h4.2V114.7z M66.2,113.7h2.2v-2.2h-2.2V113.7z"/>
		</g>
	</g>
	<g>
		<g>
			<rect id="p_132_" x="65.7" y="120.6" fill="#D94E39" width="3.2" height="3.2"/>
			<path fill="#D94E39" d="M69.4,124.3h-4.2v-4.2h4.2V124.3z M66.2,123.3h2.2v-2.2h-2.2V123.3z"/>
		</g>
	</g>
	<g>
		<g>
			<rect id="p_133_" x="65.7" y="126.9" fill="#D94E39" width="3.2" height="3.2"/>
			<path fill="#D94E39" d="M69.4,130.6h-4.2v-4.2h4.2V130.6z M66.2,129.6h2.2v-2.2h-2.2V129.6z"/>
		</g>
	</g>
	<g>
		<g>
			<rect id="p_134_" x="65.7" y="130.1" fill="#D94E39" width="3.2" height="3.2"/>
			<path fill="#D94E39" d="M69.4,133.8h-4.2v-4.2h4.2V133.8z M66.2,132.8h2.2v-2.2h-2.2V132.8z"/>
		</g>
	</g>
	<g>
		<g>
			<rect id="p_135_" x="68.9" y="41.1" fill="#D94E39" width="3.2" height="3.2"/>
			<path fill="#D94E39" d="M72.6,44.8h-4.2v-4.2h4.2V44.8z M69.4,43.8h2.2v-2.2h-2.2V43.8z"/>
		</g>
	</g>
	<g>
		<g>
			<rect id="p_136_" x="68.9" y="47.4" fill="#D94E39" width="3.2" height="3.2"/>
			<path fill="#D94E39" d="M72.6,51.1h-4.2v-4.2h4.2V51.1z M69.4,50.1h2.2v-2.2h-2.2V50.1z"/>
		</g>
	</g>
	<g>
		<g>
			<rect id="p_137_" x="68.9" y="50.6" fill="#D94E39" width="3.2" height="3.2"/>
			<path fill="#D94E39" d="M72.6,54.3h-4.2v-4.2h4.2V54.3z M69.4,53.3h2.2v-2.2h-2.2V53.3z"/>
		</g>
	</g>
	<g>
		<g>
			<rect id="p_138_" x="68.9" y="57" fill="#D94E39" width="3.2" height="3.2"/>
			<path fill="#D94E39" d="M72.6,60.7h-4.2v-4.2h4.2V60.7z M69.4,59.7h2.2v-2.2h-2.2V59.7z"/>
		</g>
	</g>
	<g>
		<g>
			<rect id="p_139_" x="68.9" y="63.3" fill="#D94E39" width="3.2" height="3.2"/>
			<path fill="#D94E39" d="M72.6,67h-4.2v-4.2h4.2V67z M69.4,66h2.2v-2.2h-2.2V66z"/>
		</g>
	</g>
	<g>
		<g>
			<rect id="p_140_" x="68.9" y="72.9" fill="#D94E39" width="3.2" height="3.2"/>
			<path fill="#D94E39" d="M72.6,76.6h-4.2v-4.2h4.2V76.6z M69.4,75.6h2.2v-2.2h-2.2V75.6z"/>
		</g>
	</g>
	<g>
		<g>
			<rect id="p_141_" x="68.9" y="82.4" fill="#D94E39" width="3.2" height="3.2"/>
			<path fill="#D94E39" d="M72.6,86.1h-4.2v-4.2h4.2V86.1z M69.4,85.1h2.2v-2.2h-2.2V85.1z"/>
		</g>
	</g>
	<g>
		<g>
			<rect id="p_142_" x="68.9" y="91.9" fill="#D94E39" width="3.2" height="3.2"/>
			<path fill="#D94E39" d="M72.6,95.6h-4.2v-4.2h4.2V95.6z M69.4,94.6h2.2v-2.2h-2.2V94.6z"/>
		</g>
	</g>
	<g>
		<g>
			<rect id="p_143_" x="68.9" y="95.1" fill="#D94E39" width="3.2" height="3.2"/>
			<path fill="#D94E39" d="M72.6,98.8h-4.2v-4.2h4.2V98.8z M69.4,97.8h2.2v-2.2h-2.2V97.8z"/>
		</g>
	</g>
	<g>
		<g>
			<rect id="p_144_" x="68.9" y="107.8" fill="#D94E39" width="3.2" height="3.2"/>
			<path fill="#D94E39" d="M72.6,111.5h-4.2v-4.2h4.2V111.5z M69.4,110.5h2.2v-2.2h-2.2V110.5z"/>
		</g>
	</g>
	<g>
		<g>
			<rect id="p_145_" x="68.9" y="120.6" fill="#D94E39" width="3.2" height="3.2"/>
			<path fill="#D94E39" d="M72.6,124.3h-4.2v-4.2h4.2V124.3z M69.4,123.3h2.2v-2.2h-2.2V123.3z"/>
		</g>
	</g>
	<g>
		<g>
			<rect id="p_146_" x="68.9" y="123.7" fill="#D94E39" width="3.2" height="3.2"/>
			<path fill="#D94E39" d="M72.6,127.4h-4.2v-4.2h4.2V127.4z M69.4,126.4h2.2v-2.2h-2.2V126.4z"/>
		</g>
	</g>
	<g>
		<g>
			<rect id="p_147_" x="68.9" y="126.9" fill="#D94E39" width="3.2" height="3.2"/>
			<path fill="#D94E39" d="M72.6,130.6h-4.2v-4.2h4.2V130.6z M69.4,129.6h2.2v-2.2h-2.2V129.6z"/>
		</g>
	</g>
	<g>
		<g>
			<rect id="p_148_" x="72.1" y="47.4" fill="#D94E39" width="3.2" height="3.2"/>
			<path fill="#D94E39" d="M75.8,51.1h-4.2v-4.2h4.2V51.1z M72.6,50.1h2.2v-2.2h-2.2V50.1z"/>
		</g>
	</g>
	<g>
		<g>
			<rect id="p_149_" x="72.1" y="50.6" fill="#D94E39" width="3.2" height="3.2"/>
			<path fill="#D94E39" d="M75.8,54.3h-4.2v-4.2h4.2V54.3z M72.6,53.3h2.2v-2.2h-2.2V53.3z"/>
		</g>
	</g>
	<g>
		<g>
			<rect id="p_150_" x="72.1" y="60.1" fill="#D94E39" width="3.2" height="3.2"/>
			<path fill="#D94E39" d="M75.8,63.8h-4.2v-4.2h4.2V63.8z M72.6,62.8h2.2v-2.2h-2.2V62.8z"/>
		</g>
	</g>
	<g>
		<g>
			<rect id="p_151_" x="72.1" y="66.5" fill="#D94E39" width="3.2" height="3.2"/>
			<path fill="#D94E39" d="M75.8,70.2h-4.2V66h4.2V70.2z M72.6,69.2h2.2V67h-2.2V69.2z"/>
		</g>
	</g>
	<g>
		<g>
			<rect id="p_152_" x="72.1" y="69.7" fill="#D94E39" width="3.2" height="3.2"/>
			<path fill="#D94E39" d="M75.8,73.4h-4.2v-4.2h4.2V73.4z M72.6,72.4h2.2v-2.2h-2.2V72.4z"/>
		</g>
	</g>
	<g>
		<g>
			<rect id="p_153_" x="72.1" y="72.9" fill="#D94E39" width="3.2" height="3.2"/>
			<path fill="#D94E39" d="M75.8,76.6h-4.2v-4.2h4.2V76.6z M72.6,75.6h2.2v-2.2h-2.2V75.6z"/>
		</g>
	</g>
	<g>
		<g>
			<rect id="p_154_" x="72.1" y="82.4" fill="#D94E39" width="3.2" height="3.2"/>
			<path fill="#D94E39" d="M75.8,86.1h-4.2v-4.2h4.2V86.1z M72.6,85.1h2.2v-2.2h-2.2V85.1z"/>
		</g>
	</g>
	<g>
		<g>
			<rect id="p_155_" x="72.1" y="88.8" fill="#D94E39" width="3.2" height="3.2"/>
			<path fill="#D94E39" d="M75.8,92.5h-4.2v-4.2h4.2V92.5z M72.6,91.5h2.2v-2.2h-2.2V91.5z"/>
		</g>
	</g>
	<g>
		<g>
			<rect id="p_156_" x="72.1" y="91.9" fill="#D94E39" width="3.2" height="3.2"/>
			<path fill="#D94E39" d="M75.8,95.6h-4.2v-4.2h4.2V95.6z M72.6,94.6h2.2v-2.2h-2.2V94.6z"/>
		</g>
	</g>
	<g>
		<g>
			<rect id="p_157_" x="72.1" y="98.3" fill="#D94E39" width="3.2" height="3.2"/>
			<path fill="#D94E39" d="M75.8,102h-4.2v-4.2h4.2V102z M72.6,101h2.2v-2.2h-2.2V101z"/>
		</g>
	</g>
	<g>
		<g>
			<rect id="p_158_" x="72.1" y="101.5" fill="#D94E39" width="3.2" height="3.2"/>
			<path fill="#D94E39" d="M75.8,105.2h-4.2V101h4.2V105.2z M72.6,104.2h2.2V102h-2.2V104.2z"/>
		</g>
	</g>
	<g>
		<g>
			<rect id="p_159_" x="72.1" y="107.8" fill="#D94E39" width="3.2" height="3.2"/>
			<path fill="#D94E39" d="M75.8,111.5h-4.2v-4.2h4.2V111.5z M72.6,110.5h2.2v-2.2h-2.2V110.5z"/>
		</g>
	</g>
	<g>
		<g>
			<rect id="p_160_" x="72.1" y="111" fill="#D94E39" width="3.2" height="3.2"/>
			<path fill="#D94E39" d="M75.8,114.7h-4.2v-4.2h4.2V114.7z M72.6,113.7h2.2v-2.2h-2.2V113.7z"/>
		</g>
	</g>
	<g>
		<g>
			<rect id="p_161_" x="72.1" y="114.2" fill="#D94E39" width="3.2" height="3.2"/>
			<path fill="#D94E39" d="M75.8,117.9h-4.2v-4.2h4.2V117.9z M72.6,116.9h2.2v-2.2h-2.2V116.9z"/>
		</g>
	</g>
	<g>
		<g>
			<rect id="p_162_" x="72.1" y="117.4" fill="#D94E39" width="3.2" height="3.2"/>
			<path fill="#D94E39" d="M75.8,121.1h-4.2v-4.2h4.2V121.1z M72.6,120.1h2.2v-2.2h-2.2V120.1z"/>
		</g>
	</g>
	<g>
		<g>
			<rect id="p_163_" x="72.1" y="120.6" fill="#D94E39" width="3.2" height="3.2"/>
			<path fill="#D94E39" d="M75.8,124.3h-4.2v-4.2h4.2V124.3z M72.6,123.3h2.2v-2.2h-2.2V123.3z"/>
		</g>
	</g>
	<g>
		<g>
			<rect id="p_164_" x="72.1" y="126.9" fill="#D94E39" width="3.2" height="3.2"/>
			<path fill="#D94E39" d="M75.8,130.6h-4.2v-4.2h4.2V130.6z M72.6,129.6h2.2v-2.2h-2.2V129.6z"/>
		</g>
	</g>
	<g>
		<g>
			<rect id="p_165_" x="75.3" y="44.2" fill="#D94E39" width="3.2" height="3.2"/>
			<path fill="#D94E39" d="M79,47.9h-4.2v-4.2H79V47.9z M75.8,46.9H78v-2.2h-2.2V46.9z"/>
		</g>
	</g>
	<g>
		<g>
			<rect id="p_166_" x="75.3" y="47.4" fill="#D94E39" width="3.2" height="3.2"/>
			<path fill="#D94E39" d="M79,51.1h-4.2v-4.2H79V51.1z M75.8,50.1H78v-2.2h-2.2V50.1z"/>
		</g>
	</g>
	<g>
		<g>
			<rect id="p_167_" x="75.3" y="50.6" fill="#D94E39" width="3.2" height="3.2"/>
			<path fill="#D94E39" d="M79,54.3h-4.2v-4.2H79V54.3z M75.8,53.3H78v-2.2h-2.2V53.3z"/>
		</g>
	</g>
	<g>
		<g>
			<rect id="p_168_" x="75.3" y="57" fill="#D94E39" width="3.2" height="3.2"/>
			<path fill="#D94E39" d="M79,60.7h-4.2v-4.2H79V60.7z M75.8,59.7H78v-2.2h-2.2V59.7z"/>
		</g>
	</g>
	<g>
		<g>
			<rect id="p_169_" x="75.3" y="69.7" fill="#D94E39" width="3.2" height="3.2"/>
			<path fill="#D94E39" d="M79,73.4h-4.2v-4.2H79V73.4z M75.8,72.4H78v-2.2h-2.2V72.4z"/>
		</g>
	</g>
	<g>
		<g>
			<rect id="p_170_" x="75.3" y="82.4" fill="#D94E39" width="3.2" height="3.2"/>
			<path fill="#D94E39" d="M79,86.1h-4.2v-4.2H79V86.1z M75.8,85.1H78v-2.2h-2.2V85.1z"/>
		</g>
	</g>
	<g>
		<g>
			<rect id="p_171_" x="75.3" y="91.9" fill="#D94E39" width="3.2" height="3.2"/>
			<path fill="#D94E39" d="M79,95.6h-4.2v-4.2H79V95.6z M75.8,94.6H78v-2.2h-2.2V94.6z"/>
		</g>
	</g>
	<g>
		<g>
			<rect id="p_172_" x="75.3" y="101.5" fill="#D94E39" width="3.2" height="3.2"/>
			<path fill="#D94E39" d="M79,105.2h-4.2V101H79V105.2z M75.8,104.2H78V102h-2.2V104.2z"/>
		</g>
	</g>
	<g>
		<g>
			<rect id="p_173_" x="75.3" y="104.7" fill="#D94E39" width="3.2" height="3.2"/>
			<path fill="#D94E39" d="M79,108.4h-4.2v-4.2H79V108.4z M75.8,107.4H78v-2.2h-2.2V107.4z"/>
		</g>
	</g>
	<g>
		<g>
			<rect id="p_174_" x="75.3" y="107.8" fill="#D94E39" width="3.2" height="3.2"/>
			<path fill="#D94E39" d="M79,111.5h-4.2v-4.2H79V111.5z M75.8,110.5H78v-2.2h-2.2V110.5z"/>
		</g>
	</g>
	<g>
		<g>
			<rect id="p_175_" x="75.3" y="111" fill="#D94E39" width="3.2" height="3.2"/>
			<path fill="#D94E39" d="M79,114.7h-4.2v-4.2H79V114.7z M75.8,113.7H78v-2.2h-2.2V113.7z"/>
		</g>
	</g>
	<g>
		<g>
			<rect id="p_176_" x="75.3" y="114.2" fill="#D94E39" width="3.2" height="3.2"/>
			<path fill="#D94E39" d="M79,117.9h-4.2v-4.2H79V117.9z M75.8,116.9H78v-2.2h-2.2V116.9z"/>
		</g>
	</g>
	<g>
		<g>
			<rect id="p_177_" x="75.3" y="117.4" fill="#D94E39" width="3.2" height="3.2"/>
			<path fill="#D94E39" d="M79,121.1h-4.2v-4.2H79V121.1z M75.8,120.1H78v-2.2h-2.2V120.1z"/>
		</g>
	</g>
	<g>
		<g>
			<rect id="p_178_" x="75.3" y="120.6" fill="#D94E39" width="3.2" height="3.2"/>
			<path fill="#D94E39" d="M79,124.3h-4.2v-4.2H79V124.3z M75.8,123.3H78v-2.2h-2.2V123.3z"/>
		</g>
	</g>
	<g>
		<g>
			<rect id="p_179_" x="75.3" y="123.7" fill="#D94E39" width="3.2" height="3.2"/>
			<path fill="#D94E39" d="M79,127.4h-4.2v-4.2H79V127.4z M75.8,126.4H78v-2.2h-2.2V126.4z"/>
		</g>
	</g>
	<g>
		<g>
			<rect id="p_180_" x="75.3" y="126.9" fill="#D94E39" width="3.2" height="3.2"/>
			<path fill="#D94E39" d="M79,130.6h-4.2v-4.2H79V130.6z M75.8,129.6H78v-2.2h-2.2V129.6z"/>
		</g>
	</g>
	<g>
		<g>
			<rect id="p_181_" x="78.4" y="41.1" fill="#D94E39" width="3.2" height="3.2"/>
			<path fill="#D94E39" d="M82.1,44.8h-4.2v-4.2h4.2V44.8z M78.9,43.8h2.2v-2.2h-2.2V43.8z"/>
		</g>
	</g>
	<g>
		<g>
			<rect id="p_182_" x="78.4" y="44.2" fill="#D94E39" width="3.2" height="3.2"/>
			<path fill="#D94E39" d="M82.1,47.9h-4.2v-4.2h4.2V47.9z M78.9,46.9h2.2v-2.2h-2.2V46.9z"/>
		</g>
	</g>
	<g>
		<g>
			<rect id="p_183_" x="78.4" y="47.4" fill="#D94E39" width="3.2" height="3.2"/>
			<path fill="#D94E39" d="M82.1,51.1h-4.2v-4.2h4.2V51.1z M78.9,50.1h2.2v-2.2h-2.2V50.1z"/>
		</g>
	</g>
	<g>
		<g>
			<rect id="p_184_" x="78.4" y="60.1" fill="#D94E39" width="3.2" height="3.2"/>
			<path fill="#D94E39" d="M82.1,63.8h-4.2v-4.2h4.2V63.8z M78.9,62.8h2.2v-2.2h-2.2V62.8z"/>
		</g>
	</g>
	<g>
		<g>
			<rect id="p_185_" x="78.4" y="63.3" fill="#D94E39" width="3.2" height="3.2"/>
			<path fill="#D94E39" d="M82.1,67h-4.2v-4.2h4.2V67z M78.9,66h2.2v-2.2h-2.2V66z"/>
		</g>
	</g>
	<g>
		<g>
			<rect id="p_186_" x="78.4" y="79.2" fill="#D94E39" width="3.2" height="3.2"/>
			<path fill="#D94E39" d="M82.1,82.9h-4.2v-4.2h4.2V82.9z M78.9,81.9h2.2v-2.2h-2.2V81.9z"/>
		</g>
	</g>
	<g>
		<g>
			<rect id="p_187_" x="78.4" y="82.4" fill="#D94E39" width="3.2" height="3.2"/>
			<path fill="#D94E39" d="M82.1,86.1h-4.2v-4.2h4.2V86.1z M78.9,85.1h2.2v-2.2h-2.2V85.1z"/>
		</g>
	</g>
	<g>
		<g>
			<rect id="p_188_" x="78.4" y="85.6" fill="#D94E39" width="3.2" height="3.2"/>
			<path fill="#D94E39" d="M82.1,89.3h-4.2v-4.2h4.2V89.3z M78.9,88.3h2.2v-2.2h-2.2V88.3z"/>
		</g>
	</g>
	<g>
		<g>
			<rect id="p_189_" x="78.4" y="88.8" fill="#D94E39" width="3.2" height="3.2"/>
			<path fill="#D94E39" d="M82.1,92.5h-4.2v-4.2h4.2V92.5z M78.9,91.5h2.2v-2.2h-2.2V91.5z"/>
		</g>
	</g>
	<g>
		<g>
			<rect id="p_190_" x="78.4" y="104.7" fill="#D94E39" width="3.2" height="3.2"/>
			<path fill="#D94E39" d="M82.1,108.4h-4.2v-4.2h4.2V108.4z M78.9,107.4h2.2v-2.2h-2.2V107.4z"/>
		</g>
	</g>
	<g>
		<g>
			<rect id="p_191_" x="78.4" y="107.8" fill="#D94E39" width="3.2" height="3.2"/>
			<path fill="#D94E39" d="M82.1,111.5h-4.2v-4.2h4.2V111.5z M78.9,110.5h2.2v-2.2h-2.2V110.5z"/>
		</g>
	</g>
	<g>
		<g>
			<rect id="p_192_" x="78.4" y="111" fill="#D94E39" width="3.2" height="3.2"/>
			<path fill="#D94E39" d="M82.1,114.7h-4.2v-4.2h4.2V114.7z M78.9,113.7h2.2v-2.2h-2.2V113.7z"/>
		</g>
	</g>
	<g>
		<g>
			<rect id="p_193_" x="78.4" y="114.2" fill="#D94E39" width="3.2" height="3.2"/>
			<path fill="#D94E39" d="M82.1,117.9h-4.2v-4.2h4.2V117.9z M78.9,116.9h2.2v-2.2h-2.2V116.9z"/>
		</g>
	</g>
	<g>
		<g>
			<rect id="p_194_" x="78.4" y="130.1" fill="#D94E39" width="3.2" height="3.2"/>
			<path fill="#D94E39" d="M82.1,133.8h-4.2v-4.2h4.2V133.8z M78.9,132.8h2.2v-2.2h-2.2V132.8z"/>
		</g>
	</g>
	<g>
		<g>
			<rect id="p_195_" x="81.6" y="53.8" fill="#D94E39" width="3.2" height="3.2"/>
			<path fill="#D94E39" d="M85.3,57.5h-4.2v-4.2h4.2V57.5z M82.1,56.5h2.2v-2.2h-2.2V56.5z"/>
		</g>
	</g>
	<g>
		<g>
			<rect id="p_196_" x="81.6" y="57" fill="#D94E39" width="3.2" height="3.2"/>
			<path fill="#D94E39" d="M85.3,60.7h-4.2v-4.2h4.2V60.7z M82.1,59.7h2.2v-2.2h-2.2V59.7z"/>
		</g>
	</g>
	<g>
		<g>
			<rect id="p_197_" x="81.6" y="88.8" fill="#D94E39" width="3.2" height="3.2"/>
			<path fill="#D94E39" d="M85.3,92.5h-4.2v-4.2h4.2V92.5z M82.1,91.5h2.2v-2.2h-2.2V91.5z"/>
		</g>
	</g>
	<g>
		<g>
			<rect id="p_198_" x="81.6" y="91.9" fill="#D94E39" width="3.2" height="3.2"/>
			<path fill="#D94E39" d="M85.3,95.6h-4.2v-4.2h4.2V95.6z M82.1,94.6h2.2v-2.2h-2.2V94.6z"/>
		</g>
	</g>
	<g>
		<g>
			<rect id="p_199_" x="81.6" y="98.3" fill="#D94E39" width="3.2" height="3.2"/>
			<path fill="#D94E39" d="M85.3,102h-4.2v-4.2h4.2V102z M82.1,101h2.2v-2.2h-2.2V101z"/>
		</g>
	</g>
	<g>
		<g>
			<rect id="p_200_" x="81.6" y="101.5" fill="#D94E39" width="3.2" height="3.2"/>
			<path fill="#D94E39" d="M85.3,105.2h-4.2V101h4.2V105.2z M82.1,104.2h2.2V102h-2.2V104.2z"/>
		</g>
	</g>
	<g>
		<g>
			<rect id="p_201_" x="81.6" y="107.8" fill="#D94E39" width="3.2" height="3.2"/>
			<path fill="#D94E39" d="M85.3,111.5h-4.2v-4.2h4.2V111.5z M82.1,110.5h2.2v-2.2h-2.2V110.5z"/>
		</g>
	</g>
	<g>
		<g>
			<rect id="p_202_" x="81.6" y="111" fill="#D94E39" width="3.2" height="3.2"/>
			<path fill="#D94E39" d="M85.3,114.7h-4.2v-4.2h4.2V114.7z M82.1,113.7h2.2v-2.2h-2.2V113.7z"/>
		</g>
	</g>
	<g>
		<g>
			<rect id="p_203_" x="81.6" y="114.2" fill="#D94E39" width="3.2" height="3.2"/>
			<path fill="#D94E39" d="M85.3,117.9h-4.2v-4.2h4.2V117.9z M82.1,116.9h2.2v-2.2h-2.2V116.9z"/>
		</g>
	</g>
	<g>
		<g>
			<rect id="p_204_" x="81.6" y="120.6" fill="#D94E39" width="3.2" height="3.2"/>
			<path fill="#D94E39" d="M85.3,124.3h-4.2v-4.2h4.2V124.3z M82.1,123.3h2.2v-2.2h-2.2V123.3z"/>
		</g>
	</g>
	<g>
		<g>
			<rect id="p_205_" x="81.6" y="123.7" fill="#D94E39" width="3.2" height="3.2"/>
			<path fill="#D94E39" d="M85.3,127.4h-4.2v-4.2h4.2V127.4z M82.1,126.4h2.2v-2.2h-2.2V126.4z"/>
		</g>
	</g>
	<g>
		<g>
			<rect id="p_206_" x="81.6" y="130.1" fill="#D94E39" width="3.2" height="3.2"/>
			<path fill="#D94E39" d="M85.3,133.8h-4.2v-4.2h4.2V133.8z M82.1,132.8h2.2v-2.2h-2.2V132.8z"/>
		</g>
	</g>
	<g>
		<g>
			<rect id="p_207_" x="84.8" y="50.6" fill="#D94E39" width="3.2" height="3.2"/>
			<path fill="#D94E39" d="M88.5,54.3h-4.2v-4.2h4.2V54.3z M85.3,53.3h2.2v-2.2h-2.2V53.3z"/>
		</g>
	</g>
	<g>
		<g>
			<rect id="p_208_" x="84.8" y="57" fill="#D94E39" width="3.2" height="3.2"/>
			<path fill="#D94E39" d="M88.5,60.7h-4.2v-4.2h4.2V60.7z M85.3,59.7h2.2v-2.2h-2.2V59.7z"/>
		</g>
	</g>
	<g>
		<g>
			<rect id="p_209_" x="84.8" y="60.1" fill="#D94E39" width="3.2" height="3.2"/>
			<path fill="#D94E39" d="M88.5,63.8h-4.2v-4.2h4.2V63.8z M85.3,62.8h2.2v-2.2h-2.2V62.8z"/>
		</g>
	</g>
	<g>
		<g>
			<rect id="p_210_" x="84.8" y="76" fill="#D94E39" width="3.2" height="3.2"/>
			<path fill="#D94E39" d="M88.5,79.7h-4.2v-4.2h4.2V79.7z M85.3,78.7h2.2v-2.2h-2.2V78.7z"/>
		</g>
	</g>
	<g>
		<g>
			<rect id="p_211_" x="84.8" y="88.8" fill="#D94E39" width="3.2" height="3.2"/>
			<path fill="#D94E39" d="M88.5,92.5h-4.2v-4.2h4.2V92.5z M85.3,91.5h2.2v-2.2h-2.2V91.5z"/>
		</g>
	</g>
	<g>
		<g>
			<rect id="p_212_" x="84.8" y="91.9" fill="#D94E39" width="3.2" height="3.2"/>
			<path fill="#D94E39" d="M88.5,95.6h-4.2v-4.2h4.2V95.6z M85.3,94.6h2.2v-2.2h-2.2V94.6z"/>
		</g>
	</g>
	<g>
		<g>
			<rect id="p_213_" x="84.8" y="104.7" fill="#D94E39" width="3.2" height="3.2"/>
			<path fill="#D94E39" d="M88.5,108.4h-4.2v-4.2h4.2V108.4z M85.3,107.4h2.2v-2.2h-2.2V107.4z"/>
		</g>
	</g>
	<g>
		<g>
			<rect id="p_214_" x="84.8" y="111" fill="#D94E39" width="3.2" height="3.2"/>
			<path fill="#D94E39" d="M88.5,114.7h-4.2v-4.2h4.2V114.7z M85.3,113.7h2.2v-2.2h-2.2V113.7z"/>
		</g>
	</g>
	<g>
		<g>
			<rect id="p_215_" x="84.8" y="117.4" fill="#D94E39" width="3.2" height="3.2"/>
			<path fill="#D94E39" d="M88.5,121.1h-4.2v-4.2h4.2V121.1z M85.3,120.1h2.2v-2.2h-2.2V120.1z"/>
		</g>
	</g>
	<g>
		<g>
			<rect id="p_216_" x="84.8" y="120.6" fill="#D94E39" width="3.2" height="3.2"/>
			<path fill="#D94E39" d="M88.5,124.3h-4.2v-4.2h4.2V124.3z M85.3,123.3h2.2v-2.2h-2.2V123.3z"/>
		</g>
	</g>
	<g>
		<g>
			<rect id="p_217_" x="84.8" y="123.7" fill="#D94E39" width="3.2" height="3.2"/>
			<path fill="#D94E39" d="M88.5,127.4h-4.2v-4.2h4.2V127.4z M85.3,126.4h2.2v-2.2h-2.2V126.4z"/>
		</g>
	</g>
	<g>
		<g>
			<rect id="p_218_" x="88" y="41.1" fill="#D94E39" width="3.2" height="3.2"/>
			<path fill="#D94E39" d="M91.7,44.8h-4.2v-4.2h4.2V44.8z M88.5,43.8h2.2v-2.2h-2.2V43.8z"/>
		</g>
	</g>
	<g>
		<g>
			<rect id="p_219_" x="88" y="44.2" fill="#D94E39" width="3.2" height="3.2"/>
			<path fill="#D94E39" d="M91.7,47.9h-4.2v-4.2h4.2V47.9z M88.5,46.9h2.2v-2.2h-2.2V46.9z"/>
		</g>
	</g>
	<g>
		<g>
			<rect id="p_220_" x="88" y="50.6" fill="#D94E39" width="3.2" height="3.2"/>
			<path fill="#D94E39" d="M91.7,54.3h-4.2v-4.2h4.2V54.3z M88.5,53.3h2.2v-2.2h-2.2V53.3z"/>
		</g>
	</g>
	<g>
		<g>
			<rect id="p_221_" x="88" y="53.8" fill="#D94E39" width="3.2" height="3.2"/>
			<path fill="#D94E39" d="M91.7,57.5h-4.2v-4.2h4.2V57.5z M88.5,56.5h2.2v-2.2h-2.2V56.5z"/>
		</g>
	</g>
	<g>
		<g>
			<rect id="p_222_" x="88" y="57" fill="#D94E39" width="3.2" height="3.2"/>
			<path fill="#D94E39" d="M91.7,60.7h-4.2v-4.2h4.2V60.7z M88.5,59.7h2.2v-2.2h-2.2V59.7z"/>
		</g>
	</g>
	<g>
		<g>
			<rect id="p_223_" x="88" y="66.5" fill="#D94E39" width="3.2" height="3.2"/>
			<path fill="#D94E39" d="M91.7,70.2h-4.2V66h4.2V70.2z M88.5,69.2h2.2V67h-2.2V69.2z"/>
		</g>
	</g>
	<g>
		<g>
			<rect id="p_224_" x="88" y="88.8" fill="#D94E39" width="3.2" height="3.2"/>
			<path fill="#D94E39" d="M91.7,92.5h-4.2v-4.2h4.2V92.5z M88.5,91.5h2.2v-2.2h-2.2V91.5z"/>
		</g>
	</g>
	<g>
		<g>
			<rect id="p_225_" x="88" y="101.5" fill="#D94E39" width="3.2" height="3.2"/>
			<path fill="#D94E39" d="M91.7,105.2h-4.2V101h4.2V105.2z M88.5,104.2h2.2V102h-2.2V104.2z"/>
		</g>
	</g>
	<g>
		<g>
			<rect id="p_226_" x="88" y="104.7" fill="#D94E39" width="3.2" height="3.2"/>
			<path fill="#D94E39" d="M91.7,108.4h-4.2v-4.2h4.2V108.4z M88.5,107.4h2.2v-2.2h-2.2V107.4z"/>
		</g>
	</g>
	<g>
		<g>
			<rect id="p_227_" x="88" y="114.2" fill="#D94E39" width="3.2" height="3.2"/>
			<path fill="#D94E39" d="M91.7,117.9h-4.2v-4.2h4.2V117.9z M88.5,116.9h2.2v-2.2h-2.2V116.9z"/>
		</g>
	</g>
	<g>
		<g>
			<rect id="p_228_" x="88" y="117.4" fill="#D94E39" width="3.2" height="3.2"/>
			<path fill="#D94E39" d="M91.7,121.1h-4.2v-4.2h4.2V121.1z M88.5,120.1h2.2v-2.2h-2.2V120.1z"/>
		</g>
	</g>
	<g>
		<g>
			<rect id="p_229_" x="88" y="130.1" fill="#D94E39" width="3.2" height="3.2"/>
			<path fill="#D94E39" d="M91.7,133.8h-4.2v-4.2h4.2V133.8z M88.5,132.8h2.2v-2.2h-2.2V132.8z"/>
		</g>
	</g>
	<g>
		<g>
			<rect id="p_230_" x="91.2" y="47.4" fill="#D94E39" width="3.2" height="3.2"/>
			<path fill="#D94E39" d="M94.9,51.1h-4.2v-4.2h4.2V51.1z M91.7,50.1h2.2v-2.2h-2.2V50.1z"/>
		</g>
	</g>
	<g>
		<g>
			<rect id="p_231_" x="91.2" y="53.8" fill="#D94E39" width="3.2" height="3.2"/>
			<path fill="#D94E39" d="M94.9,57.5h-4.2v-4.2h4.2V57.5z M91.7,56.5h2.2v-2.2h-2.2V56.5z"/>
		</g>
	</g>
	<g>
		<g>
			<rect id="p_232_" x="91.2" y="57" fill="#D94E39" width="3.2" height="3.2"/>
			<path fill="#D94E39" d="M94.9,60.7h-4.2v-4.2h4.2V60.7z M91.7,59.7h2.2v-2.2h-2.2V59.7z"/>
		</g>
	</g>
	<g>
		<g>
			<rect id="p_233_" x="91.2" y="60.1" fill="#D94E39" width="3.2" height="3.2"/>
			<path fill="#D94E39" d="M94.9,63.8h-4.2v-4.2h4.2V63.8z M91.7,62.8h2.2v-2.2h-2.2V62.8z"/>
		</g>
	</g>
	<g>
		<g>
			<rect id="p_234_" x="91.2" y="66.5" fill="#D94E39" width="3.2" height="3.2"/>
			<path fill="#D94E39" d="M94.9,70.2h-4.2V66h4.2V70.2z M91.7,69.2h2.2V67h-2.2V69.2z"/>
		</g>
	</g>
	<g>
		<g>
			<rect id="p_235_" x="91.2" y="79.2" fill="#D94E39" width="3.2" height="3.2"/>
			<path fill="#D94E39" d="M94.9,82.9h-4.2v-4.2h4.2V82.9z M91.7,81.9h2.2v-2.2h-2.2V81.9z"/>
		</g>
	</g>
	<g>
		<g>
			<rect id="p_236_" x="91.2" y="95.1" fill="#D94E39" width="3.2" height="3.2"/>
			<path fill="#D94E39" d="M94.9,98.8h-4.2v-4.2h4.2V98.8z M91.7,97.8h2.2v-2.2h-2.2V97.8z"/>
		</g>
	</g>
	<g>
		<g>
			<rect id="p_237_" x="91.2" y="98.3" fill="#D94E39" width="3.2" height="3.2"/>
			<path fill="#D94E39" d="M94.9,102h-4.2v-4.2h4.2V102z M91.7,101h2.2v-2.2h-2.2V101z"/>
		</g>
	</g>
	<g>
		<g>
			<rect id="p_238_" x="91.2" y="104.7" fill="#D94E39" width="3.2" height="3.2"/>
			<path fill="#D94E39" d="M94.9,108.4h-4.2v-4.2h4.2V108.4z M91.7,107.4h2.2v-2.2h-2.2V107.4z"/>
		</g>
	</g>
	<g>
		<g>
			<rect id="p_239_" x="91.2" y="107.8" fill="#D94E39" width="3.2" height="3.2"/>
			<path fill="#D94E39" d="M94.9,111.5h-4.2v-4.2h4.2V111.5z M91.7,110.5h2.2v-2.2h-2.2V110.5z"/>
		</g>
	</g>
	<g>
		<g>
			<rect id="p_240_" x="91.2" y="111" fill="#D94E39" width="3.2" height="3.2"/>
			<path fill="#D94E39" d="M94.9,114.7h-4.2v-4.2h4.2V114.7z M91.7,113.7h2.2v-2.2h-2.2V113.7z"/>
		</g>
	</g>
	<g>
		<g>
			<rect id="p_241_" x="91.2" y="117.4" fill="#D94E39" width="3.2" height="3.2"/>
			<path fill="#D94E39" d="M94.9,121.1h-4.2v-4.2h4.2V121.1z M91.7,120.1h2.2v-2.2h-2.2V120.1z"/>
		</g>
	</g>
	<g>
		<g>
			<rect id="p_242_" x="91.2" y="126.9" fill="#D94E39" width="3.2" height="3.2"/>
			<path fill="#D94E39" d="M94.9,130.6h-4.2v-4.2h4.2V130.6z M91.7,129.6h2.2v-2.2h-2.2V129.6z"/>
		</g>
	</g>
	<g>
		<g>
			<rect id="p_243_" x="94.3" y="44.2" fill="#D94E39" width="3.2" height="3.2"/>
			<path fill="#D94E39" d="M98,47.9h-4.2v-4.2H98V47.9z M94.8,46.9H97v-2.2h-2.2V46.9z"/>
		</g>
	</g>
	<g>
		<g>
			<rect id="p_244_" x="94.3" y="47.4" fill="#D94E39" width="3.2" height="3.2"/>
			<path fill="#D94E39" d="M98,51.1h-4.2v-4.2H98V51.1z M94.8,50.1H97v-2.2h-2.2V50.1z"/>
		</g>
	</g>
	<g>
		<g>
			<rect id="p_245_" x="94.3" y="53.8" fill="#D94E39" width="3.2" height="3.2"/>
			<path fill="#D94E39" d="M98,57.5h-4.2v-4.2H98V57.5z M94.8,56.5H97v-2.2h-2.2V56.5z"/>
		</g>
	</g>
	<g>
		<g>
			<rect id="p_246_" x="94.3" y="63.3" fill="#D94E39" width="3.2" height="3.2"/>
			<path fill="#D94E39" d="M98,67h-4.2v-4.2H98V67z M94.8,66H97v-2.2h-2.2V66z"/>
		</g>
	</g>
	<g>
		<g>
			<rect id="p_247_" x="94.3" y="69.7" fill="#D94E39" width="3.2" height="3.2"/>
			<path fill="#D94E39" d="M98,73.4h-4.2v-4.2H98V73.4z M94.8,72.4H97v-2.2h-2.2V72.4z"/>
		</g>
	</g>
	<g>
		<g>
			<rect id="p_248_" x="94.3" y="79.2" fill="#D94E39" width="3.2" height="3.2"/>
			<path fill="#D94E39" d="M98,82.9h-4.2v-4.2H98V82.9z M94.8,81.9H97v-2.2h-2.2V81.9z"/>
		</g>
	</g>
	<g>
		<g>
			<rect id="p_249_" x="94.3" y="82.4" fill="#D94E39" width="3.2" height="3.2"/>
			<path fill="#D94E39" d="M98,86.1h-4.2v-4.2H98V86.1z M94.8,85.1H97v-2.2h-2.2V85.1z"/>
		</g>
	</g>
	<g>
		<g>
			<rect id="p_250_" x="94.3" y="88.8" fill="#D94E39" width="3.2" height="3.2"/>
			<path fill="#D94E39" d="M98,92.5h-4.2v-4.2H98V92.5z M94.8,91.5H97v-2.2h-2.2V91.5z"/>
		</g>
	</g>
	<g>
		<g>
			<rect id="p_251_" x="94.3" y="91.9" fill="#D94E39" width="3.2" height="3.2"/>
			<path fill="#D94E39" d="M98,95.6h-4.2v-4.2H98V95.6z M94.8,94.6H97v-2.2h-2.2V94.6z"/>
		</g>
	</g>
	<g>
		<g>
			<rect id="p_252_" x="94.3" y="95.1" fill="#D94E39" width="3.2" height="3.2"/>
			<path fill="#D94E39" d="M98,98.8h-4.2v-4.2H98V98.8z M94.8,97.8H97v-2.2h-2.2V97.8z"/>
		</g>
	</g>
	<g>
		<g>
			<rect id="p_253_" x="94.3" y="98.3" fill="#D94E39" width="3.2" height="3.2"/>
			<path fill="#D94E39" d="M98,102h-4.2v-4.2H98V102z M94.8,101H97v-2.2h-2.2V101z"/>
		</g>
	</g>
	<g>
		<g>
			<rect id="p_254_" x="94.3" y="101.5" fill="#D94E39" width="3.2" height="3.2"/>
			<path fill="#D94E39" d="M98,105.2h-4.2V101H98V105.2z M94.8,104.2H97V102h-2.2V104.2z"/>
		</g>
	</g>
	<g>
		<g>
			<rect id="p_255_" x="94.3" y="107.8" fill="#D94E39" width="3.2" height="3.2"/>
			<path fill="#D94E39" d="M98,111.5h-4.2v-4.2H98V111.5z M94.8,110.5H97v-2.2h-2.2V110.5z"/>
		</g>
	</g>
	<g>
		<g>
			<rect id="p_256_" x="94.3" y="111" fill="#D94E39" width="3.2" height="3.2"/>
			<path fill="#D94E39" d="M98,114.7h-4.2v-4.2H98V114.7z M94.8,113.7H97v-2.2h-2.2V113.7z"/>
		</g>
	</g>
	<g>
		<g>
			<rect id="p_257_" x="94.3" y="117.4" fill="#D94E39" width="3.2" height="3.2"/>
			<path fill="#D94E39" d="M98,121.1h-4.2v-4.2H98V121.1z M94.8,120.1H97v-2.2h-2.2V120.1z"/>
		</g>
	</g>
	<g>
		<g>
			<rect id="p_258_" x="94.3" y="120.6" fill="#D94E39" width="3.2" height="3.2"/>
			<path fill="#D94E39" d="M98,124.3h-4.2v-4.2H98V124.3z M94.8,123.3H97v-2.2h-2.2V123.3z"/>
		</g>
	</g>
	<g>
		<g>
			<rect id="p_259_" x="94.3" y="123.7" fill="#D94E39" width="3.2" height="3.2"/>
			<path fill="#D94E39" d="M98,127.4h-4.2v-4.2H98V127.4z M94.8,126.4H97v-2.2h-2.2V126.4z"/>
		</g>
	</g>
	<g>
		<g>
			<rect id="p_260_" x="94.3" y="126.9" fill="#D94E39" width="3.2" height="3.2"/>
			<path fill="#D94E39" d="M98,130.6h-4.2v-4.2H98V130.6z M94.8,129.6H97v-2.2h-2.2V129.6z"/>
		</g>
	</g>
	<g>
		<g>
			<rect id="p_261_" x="94.3" y="130.1" fill="#D94E39" width="3.2" height="3.2"/>
			<path fill="#D94E39" d="M98,133.8h-4.2v-4.2H98V133.8z M94.8,132.8H97v-2.2h-2.2V132.8z"/>
		</g>
	</g>
	<g>
		<g>
			<rect id="p_262_" x="97.5" y="41.1" fill="#D94E39" width="3.2" height="3.2"/>
			<path fill="#D94E39" d="M101.2,44.8H97v-4.2h4.2V44.8z M98,43.8h2.2v-2.2H98V43.8z"/>
		</g>
	</g>
	<g>
		<g>
			<rect id="p_263_" x="97.5" y="44.2" fill="#D94E39" width="3.2" height="3.2"/>
			<path fill="#D94E39" d="M101.2,47.9H97v-4.2h4.2V47.9z M98,46.9h2.2v-2.2H98V46.9z"/>
		</g>
	</g>
	<g>
		<g>
			<rect id="p_264_" x="97.5" y="50.6" fill="#D94E39" width="3.2" height="3.2"/>
			<path fill="#D94E39" d="M101.2,54.3H97v-4.2h4.2V54.3z M98,53.3h2.2v-2.2H98V53.3z"/>
		</g>
	</g>
	<g>
		<g>
			<rect id="p_265_" x="97.5" y="53.8" fill="#D94E39" width="3.2" height="3.2"/>
			<path fill="#D94E39" d="M101.2,57.5H97v-4.2h4.2V57.5z M98,56.5h2.2v-2.2H98V56.5z"/>
		</g>
	</g>
	<g>
		<g>
			<rect id="p_266_" x="97.5" y="57" fill="#D94E39" width="3.2" height="3.2"/>
			<path fill="#D94E39" d="M101.2,60.7H97v-4.2h4.2V60.7z M98,59.7h2.2v-2.2H98V59.7z"/>
		</g>
	</g>
	<g>
		<g>
			<rect id="p_267_" x="97.5" y="60.1" fill="#D94E39" width="3.2" height="3.2"/>
			<path fill="#D94E39" d="M101.2,63.8H97v-4.2h4.2V63.8z M98,62.8h2.2v-2.2H98V62.8z"/>
		</g>
	</g>
	<g>
		<g>
			<rect id="p_268_" x="97.5" y="76" fill="#D94E39" width="3.2" height="3.2"/>
			<path fill="#D94E39" d="M101.2,79.7H97v-4.2h4.2V79.7z M98,78.7h2.2v-2.2H98V78.7z"/>
		</g>
	</g>
	<g>
		<g>
			<rect id="p_269_" x="97.5" y="82.4" fill="#D94E39" width="3.2" height="3.2"/>
			<path fill="#D94E39" d="M101.2,86.1H97v-4.2h4.2V86.1z M98,85.1h2.2v-2.2H98V85.1z"/>
		</g>
	</g>
	<g>
		<g>
			<rect id="p_270_" x="97.5" y="85.6" fill="#D94E39" width="3.2" height="3.2"/>
			<path fill="#D94E39" d="M101.2,89.3H97v-4.2h4.2V89.3z M98,88.3h2.2v-2.2H98V88.3z"/>
		</g>
	</g>
	<g>
		<g>
			<rect id="p_271_" x="97.5" y="91.9" fill="#D94E39" width="3.2" height="3.2"/>
			<path fill="#D94E39" d="M101.2,95.6H97v-4.2h4.2V95.6z M98,94.6h2.2v-2.2H98V94.6z"/>
		</g>
	</g>
	<g>
		<g>
			<rect id="p_272_" x="97.5" y="111" fill="#D94E39" width="3.2" height="3.2"/>
			<path fill="#D94E39" d="M101.2,114.7H97v-4.2h4.2V114.7z M98,113.7h2.2v-2.2H98V113.7z"/>
		</g>
	</g>
	<g>
		<g>
			<rect id="p_273_" x="97.5" y="126.9" fill="#D94E39" width="3.2" height="3.2"/>
			<path fill="#D94E39" d="M101.2,130.6H97v-4.2h4.2V130.6z M98,129.6h2.2v-2.2H98V129.6z"/>
		</g>
	</g>
	<g>
		<g>
			<rect id="p_274_" x="97.5" y="130.1" fill="#D94E39" width="3.2" height="3.2"/>
			<path fill="#D94E39" d="M101.2,133.8H97v-4.2h4.2V133.8z M98,132.8h2.2v-2.2H98V132.8z"/>
		</g>
	</g>
	<g>
		<g>
			<rect id="p_275_" x="100.7" y="41.1" fill="#D94E39" width="3.2" height="3.2"/>
			<path fill="#D94E39" d="M104.4,44.8h-4.2v-4.2h4.2V44.8z M101.2,43.8h2.2v-2.2h-2.2V43.8z"/>
		</g>
	</g>
	<g>
		<g>
			<rect id="p_276_" x="100.7" y="50.6" fill="#D94E39" width="3.2" height="3.2"/>
			<path fill="#D94E39" d="M104.4,54.3h-4.2v-4.2h4.2V54.3z M101.2,53.3h2.2v-2.2h-2.2V53.3z"/>
		</g>
	</g>
	<g>
		<g>
			<rect id="p_277_" x="100.7" y="57" fill="#D94E39" width="3.2" height="3.2"/>
			<path fill="#D94E39" d="M104.4,60.7h-4.2v-4.2h4.2V60.7z M101.2,59.7h2.2v-2.2h-2.2V59.7z"/>
		</g>
	</g>
	<g>
		<g>
			<rect id="p_278_" x="100.7" y="63.3" fill="#D94E39" width="3.2" height="3.2"/>
			<path fill="#D94E39" d="M104.4,67h-4.2v-4.2h4.2V67z M101.2,66h2.2v-2.2h-2.2V66z"/>
		</g>
	</g>
	<g>
		<g>
			<rect id="p_279_" x="100.7" y="66.5" fill="#D94E39" width="3.2" height="3.2"/>
			<path fill="#D94E39" d="M104.4,70.2h-4.2V66h4.2V70.2z M101.2,69.2h2.2V67h-2.2V69.2z"/>
		</g>
	</g>
	<g>
		<g>
			<rect id="p_280_" x="100.7" y="72.9" fill="#D94E39" width="3.2" height="3.2"/>
			<path fill="#D94E39" d="M104.4,76.6h-4.2v-4.2h4.2V76.6z M101.2,75.6h2.2v-2.2h-2.2V75.6z"/>
		</g>
	</g>
	<g>
		<g>
			<rect id="p_281_" x="100.7" y="76" fill="#D94E39" width="3.2" height="3.2"/>
			<path fill="#D94E39" d="M104.4,79.7h-4.2v-4.2h4.2V79.7z M101.2,78.7h2.2v-2.2h-2.2V78.7z"/>
		</g>
	</g>
	<g>
		<g>
			<rect id="p_282_" x="100.7" y="82.4" fill="#D94E39" width="3.2" height="3.2"/>
			<path fill="#D94E39" d="M104.4,86.1h-4.2v-4.2h4.2V86.1z M101.2,85.1h2.2v-2.2h-2.2V85.1z"/>
		</g>
	</g>
	<g>
		<g>
			<rect id="p_283_" x="100.7" y="88.8" fill="#D94E39" width="3.2" height="3.2"/>
			<path fill="#D94E39" d="M104.4,92.5h-4.2v-4.2h4.2V92.5z M101.2,91.5h2.2v-2.2h-2.2V91.5z"/>
		</g>
	</g>
	<g>
		<g>
			<rect id="p_284_" x="100.7" y="101.5" fill="#D94E39" width="3.2" height="3.2"/>
			<path fill="#D94E39" d="M104.4,105.2h-4.2V101h4.2V105.2z M101.2,104.2h2.2V102h-2.2V104.2z"/>
		</g>
	</g>
	<g>
		<g>
			<rect id="p_285_" x="100.7" y="107.8" fill="#D94E39" width="3.2" height="3.2"/>
			<path fill="#D94E39" d="M104.4,111.5h-4.2v-4.2h4.2V111.5z M101.2,110.5h2.2v-2.2h-2.2V110.5z"/>
		</g>
	</g>
	<g>
		<g>
			<rect id="p_286_" x="100.7" y="120.6" fill="#D94E39" width="3.2" height="3.2"/>
			<path fill="#D94E39" d="M104.4,124.3h-4.2v-4.2h4.2V124.3z M101.2,123.3h2.2v-2.2h-2.2V123.3z"/>
		</g>
	</g>
	<g>
		<g>
			<rect id="p_287_" x="103.9" y="47.4" fill="#D94E39" width="3.2" height="3.2"/>
			<path fill="#D94E39" d="M107.6,51.1h-4.2v-4.2h4.2V51.1z M104.4,50.1h2.2v-2.2h-2.2V50.1z"/>
		</g>
	</g>
	<g>
		<g>
			<rect id="p_288_" x="103.9" y="57" fill="#D94E39" width="3.2" height="3.2"/>
			<path fill="#D94E39" d="M107.6,60.7h-4.2v-4.2h4.2V60.7z M104.4,59.7h2.2v-2.2h-2.2V59.7z"/>
		</g>
	</g>
	<g>
		<g>
			<rect id="p_289_" x="103.9" y="60.1" fill="#D94E39" width="3.2" height="3.2"/>
			<path fill="#D94E39" d="M107.6,63.8h-4.2v-4.2h4.2V63.8z M104.4,62.8h2.2v-2.2h-2.2V62.8z"/>
		</g>
	</g>
	<g>
		<g>
			<rect id="p_290_" x="103.9" y="63.3" fill="#D94E39" width="3.2" height="3.2"/>
			<path fill="#D94E39" d="M107.6,67h-4.2v-4.2h4.2V67z M104.4,66h2.2v-2.2h-2.2V66z"/>
		</g>
	</g>
	<g>
		<g>
			<rect id="p_291_" x="103.9" y="69.7" fill="#D94E39" width="3.2" height="3.2"/>
			<path fill="#D94E39" d="M107.6,73.4h-4.2v-4.2h4.2V73.4z M104.4,72.4h2.2v-2.2h-2.2V72.4z"/>
		</g>
	</g>
	<g>
		<g>
			<rect id="p_292_" x="103.9" y="76" fill="#D94E39" width="3.2" height="3.2"/>
			<path fill="#D94E39" d="M107.6,79.7h-4.2v-4.2h4.2V79.7z M104.4,78.7h2.2v-2.2h-2.2V78.7z"/>
		</g>
	</g>
	<g>
		<g>
			<rect id="p_293_" x="103.9" y="79.2" fill="#D94E39" width="3.2" height="3.2"/>
			<path fill="#D94E39" d="M107.6,82.9h-4.2v-4.2h4.2V82.9z M104.4,81.9h2.2v-2.2h-2.2V81.9z"/>
		</g>
	</g>
	<g>
		<g>
			<rect id="p_294_" x="103.9" y="82.4" fill="#D94E39" width="3.2" height="3.2"/>
			<path fill="#D94E39" d="M107.6,86.1h-4.2v-4.2h4.2V86.1z M104.4,85.1h2.2v-2.2h-2.2V85.1z"/>
		</g>
	</g>
	<g>
		<g>
			<rect id="p_295_" x="103.9" y="91.9" fill="#D94E39" width="3.2" height="3.2"/>
			<path fill="#D94E39" d="M107.6,95.6h-4.2v-4.2h4.2V95.6z M104.4,94.6h2.2v-2.2h-2.2V94.6z"/>
		</g>
	</g>
	<g>
		<g>
			<rect id="p_296_" x="103.9" y="104.7" fill="#D94E39" width="3.2" height="3.2"/>
			<path fill="#D94E39" d="M107.6,108.4h-4.2v-4.2h4.2V108.4z M104.4,107.4h2.2v-2.2h-2.2V107.4z"/>
		</g>
	</g>
	<g>
		<g>
			<rect id="p_297_" x="103.9" y="107.8" fill="#D94E39" width="3.2" height="3.2"/>
			<path fill="#D94E39" d="M107.6,111.5h-4.2v-4.2h4.2V111.5z M104.4,110.5h2.2v-2.2h-2.2V110.5z"/>
		</g>
	</g>
	<g>
		<g>
			<rect id="p_298_" x="103.9" y="111" fill="#D94E39" width="3.2" height="3.2"/>
			<path fill="#D94E39" d="M107.6,114.7h-4.2v-4.2h4.2V114.7z M104.4,113.7h2.2v-2.2h-2.2V113.7z"/>
		</g>
	</g>
	<g>
		<g>
			<rect id="p_299_" x="103.9" y="114.2" fill="#D94E39" width="3.2" height="3.2"/>
			<path fill="#D94E39" d="M107.6,117.9h-4.2v-4.2h4.2V117.9z M104.4,116.9h2.2v-2.2h-2.2V116.9z"/>
		</g>
	</g>
	<g>
		<g>
			<rect id="p_300_" x="103.9" y="117.4" fill="#D94E39" width="3.2" height="3.2"/>
			<path fill="#D94E39" d="M107.6,121.1h-4.2v-4.2h4.2V121.1z M104.4,120.1h2.2v-2.2h-2.2V120.1z"/>
		</g>
	</g>
	<g>
		<g>
			<rect id="p_301_" x="103.9" y="120.6" fill="#D94E39" width="3.2" height="3.2"/>
			<path fill="#D94E39" d="M107.6,124.3h-4.2v-4.2h4.2V124.3z M104.4,123.3h2.2v-2.2h-2.2V123.3z"/>
		</g>
	</g>
	<g>
		<g>
			<rect id="p_302_" x="103.9" y="126.9" fill="#D94E39" width="3.2" height="3.2"/>
			<path fill="#D94E39" d="M107.6,130.6h-4.2v-4.2h4.2V130.6z M104.4,129.6h2.2v-2.2h-2.2V129.6z"/>
		</g>
	</g>
	<g>
		<g>
			<rect id="p_303_" x="103.9" y="130.1" fill="#D94E39" width="3.2" height="3.2"/>
			<path fill="#D94E39" d="M107.6,133.8h-4.2v-4.2h4.2V133.8z M104.4,132.8h2.2v-2.2h-2.2V132.8z"/>
		</g>
	</g>
	<g>
		<g>
			<rect id="p_304_" x="107.1" y="69.7" fill="#D94E39" width="3.2" height="3.2"/>
			<path fill="#D94E39" d="M110.8,73.4h-4.2v-4.2h4.2V73.4z M107.6,72.4h2.2v-2.2h-2.2V72.4z"/>
		</g>
	</g>
	<g>
		<g>
			<rect id="p_305_" x="107.1" y="72.9" fill="#D94E39" width="3.2" height="3.2"/>
			<path fill="#D94E39" d="M110.8,76.6h-4.2v-4.2h4.2V76.6z M107.6,75.6h2.2v-2.2h-2.2V75.6z"/>
		</g>
	</g>
	<g>
		<g>
			<rect id="p_306_" x="107.1" y="79.2" fill="#D94E39" width="3.2" height="3.2"/>
			<path fill="#D94E39" d="M110.8,82.9h-4.2v-4.2h4.2V82.9z M107.6,81.9h2.2v-2.2h-2.2V81.9z"/>
		</g>
	</g>
	<g>
		<g>
			<rect id="p_307_" x="107.1" y="85.6" fill="#D94E39" width="3.2" height="3.2"/>
			<path fill="#D94E39" d="M110.8,89.3h-4.2v-4.2h4.2V89.3z M107.6,88.3h2.2v-2.2h-2.2V88.3z"/>
		</g>
	</g>
	<g>
		<g>
			<rect id="p_308_" x="107.1" y="91.9" fill="#D94E39" width="3.2" height="3.2"/>
			<path fill="#D94E39" d="M110.8,95.6h-4.2v-4.2h4.2V95.6z M107.6,94.6h2.2v-2.2h-2.2V94.6z"/>
		</g>
	</g>
	<g>
		<g>
			<rect id="p_309_" x="107.1" y="95.1" fill="#D94E39" width="3.2" height="3.2"/>
			<path fill="#D94E39" d="M110.8,98.8h-4.2v-4.2h4.2V98.8z M107.6,97.8h2.2v-2.2h-2.2V97.8z"/>
		</g>
	</g>
	<g>
		<g>
			<rect id="p_310_" x="107.1" y="104.7" fill="#D94E39" width="3.2" height="3.2"/>
			<path fill="#D94E39" d="M110.8,108.4h-4.2v-4.2h4.2V108.4z M107.6,107.4h2.2v-2.2h-2.2V107.4z"/>
		</g>
	</g>
	<g>
		<g>
			<rect id="p_311_" x="107.1" y="117.4" fill="#D94E39" width="3.2" height="3.2"/>
			<path fill="#D94E39" d="M110.8,121.1h-4.2v-4.2h4.2V121.1z M107.6,120.1h2.2v-2.2h-2.2V120.1z"/>
		</g>
	</g>
	<g>
		<g>
			<rect id="p_312_" x="107.1" y="123.7" fill="#D94E39" width="3.2" height="3.2"/>
			<path fill="#D94E39" d="M110.8,127.4h-4.2v-4.2h4.2V127.4z M107.6,126.4h2.2v-2.2h-2.2V126.4z"/>
		</g>
	</g>
	<g>
		<g>
			<rect id="p_313_" x="107.1" y="126.9" fill="#D94E39" width="3.2" height="3.2"/>
			<path fill="#D94E39" d="M110.8,130.6h-4.2v-4.2h4.2V130.6z M107.6,129.6h2.2v-2.2h-2.2V129.6z"/>
		</g>
	</g>
	<g>
		<g>
			<rect id="p_314_" x="107.1" y="130.1" fill="#D94E39" width="3.2" height="3.2"/>
			<path fill="#D94E39" d="M110.8,133.8h-4.2v-4.2h4.2V133.8z M107.6,132.8h2.2v-2.2h-2.2V132.8z"/>
		</g>
	</g>
	<g>
		<g>
			<rect id="p_315_" x="110.2" y="41.1" fill="#D94E39" width="3.2" height="3.2"/>
			<path fill="#D94E39" d="M113.9,44.8h-4.2v-4.2h4.2V44.8z M110.7,43.8h2.2v-2.2h-2.2V43.8z"/>
		</g>
	</g>
	<g>
		<g>
			<rect id="p_316_" x="110.2" y="44.2" fill="#D94E39" width="3.2" height="3.2"/>
			<path fill="#D94E39" d="M113.9,47.9h-4.2v-4.2h4.2V47.9z M110.7,46.9h2.2v-2.2h-2.2V46.9z"/>
		</g>
	</g>
	<g>
		<g>
			<rect id="p_317_" x="110.2" y="47.4" fill="#D94E39" width="3.2" height="3.2"/>
			<path fill="#D94E39" d="M113.9,51.1h-4.2v-4.2h4.2V51.1z M110.7,50.1h2.2v-2.2h-2.2V50.1z"/>
		</g>
	</g>
	<g>
		<g>
			<rect id="p_318_" x="110.2" y="50.6" fill="#D94E39" width="3.2" height="3.2"/>
			<path fill="#D94E39" d="M113.9,54.3h-4.2v-4.2h4.2V54.3z M110.7,53.3h2.2v-2.2h-2.2V53.3z"/>
		</g>
	</g>
	<g>
		<g>
			<rect id="p_319_" x="110.2" y="53.8" fill="#D94E39" width="3.2" height="3.2"/>
			<path fill="#D94E39" d="M113.9,57.5h-4.2v-4.2h4.2V57.5z M110.7,56.5h2.2v-2.2h-2.2V56.5z"/>
		</g>
	</g>
	<g>
		<g>
			<rect id="p_320_" x="110.2" y="57" fill="#D94E39" width="3.2" height="3.2"/>
			<path fill="#D94E39" d="M113.9,60.7h-4.2v-4.2h4.2V60.7z M110.7,59.7h2.2v-2.2h-2.2V59.7z"/>
		</g>
	</g>
	<g>
		<g>
			<rect id="p_321_" x="110.2" y="60.1" fill="#D94E39" width="3.2" height="3.2"/>
			<path fill="#D94E39" d="M113.9,63.8h-4.2v-4.2h4.2V63.8z M110.7,62.8h2.2v-2.2h-2.2V62.8z"/>
		</g>
	</g>
	<g>
		<g>
			<rect id="p_322_" x="110.2" y="66.5" fill="#D94E39" width="3.2" height="3.2"/>
			<path fill="#D94E39" d="M113.9,70.2h-4.2V66h4.2V70.2z M110.7,69.2h2.2V67h-2.2V69.2z"/>
		</g>
	</g>
	<g>
		<g>
			<rect id="p_323_" x="110.2" y="69.7" fill="#D94E39" width="3.2" height="3.2"/>
			<path fill="#D94E39" d="M113.9,73.4h-4.2v-4.2h4.2V73.4z M110.7,72.4h2.2v-2.2h-2.2V72.4z"/>
		</g>
	</g>
	<g>
		<g>
			<rect id="p_324_" x="110.2" y="72.9" fill="#D94E39" width="3.2" height="3.2"/>
			<path fill="#D94E39" d="M113.9,76.6h-4.2v-4.2h4.2V76.6z M110.7,75.6h2.2v-2.2h-2.2V75.6z"/>
		</g>
	</g>
	<g>
		<g>
			<rect id="p_325_" x="110.2" y="76" fill="#D94E39" width="3.2" height="3.2"/>
			<path fill="#D94E39" d="M113.9,79.7h-4.2v-4.2h4.2V79.7z M110.7,78.7h2.2v-2.2h-2.2V78.7z"/>
		</g>
	</g>
	<g>
		<g>
			<rect id="p_326_" x="110.2" y="79.2" fill="#D94E39" width="3.2" height="3.2"/>
			<path fill="#D94E39" d="M113.9,82.9h-4.2v-4.2h4.2V82.9z M110.7,81.9h2.2v-2.2h-2.2V81.9z"/>
		</g>
	</g>
	<g>
		<g>
			<rect id="p_327_" x="110.2" y="85.6" fill="#D94E39" width="3.2" height="3.2"/>
			<path fill="#D94E39" d="M113.9,89.3h-4.2v-4.2h4.2V89.3z M110.7,88.3h2.2v-2.2h-2.2V88.3z"/>
		</g>
	</g>
	<g>
		<g>
			<rect id="p_328_" x="110.2" y="95.1" fill="#D94E39" width="3.2" height="3.2"/>
			<path fill="#D94E39" d="M113.9,98.8h-4.2v-4.2h4.2V98.8z M110.7,97.8h2.2v-2.2h-2.2V97.8z"/>
		</g>
	</g>
	<g>
		<g>
			<rect id="p_329_" x="110.2" y="101.5" fill="#D94E39" width="3.2" height="3.2"/>
			<path fill="#D94E39" d="M113.9,105.2h-4.2V101h4.2V105.2z M110.7,104.2h2.2V102h-2.2V104.2z"/>
		</g>
	</g>
	<g>
		<g>
			<rect id="p_330_" x="110.2" y="104.7" fill="#D94E39" width="3.2" height="3.2"/>
			<path fill="#D94E39" d="M113.9,108.4h-4.2v-4.2h4.2V108.4z M110.7,107.4h2.2v-2.2h-2.2V107.4z"/>
		</g>
	</g>
	<g>
		<g>
			<rect id="p_331_" x="110.2" y="111" fill="#D94E39" width="3.2" height="3.2"/>
			<path fill="#D94E39" d="M113.9,114.7h-4.2v-4.2h4.2V114.7z M110.7,113.7h2.2v-2.2h-2.2V113.7z"/>
		</g>
	</g>
	<g>
		<g>
			<rect id="p_332_" x="110.2" y="117.4" fill="#D94E39" width="3.2" height="3.2"/>
			<path fill="#D94E39" d="M113.9,121.1h-4.2v-4.2h4.2V121.1z M110.7,120.1h2.2v-2.2h-2.2V120.1z"/>
		</g>
	</g>
	<g>
		<g>
			<rect id="p_333_" x="110.2" y="120.6" fill="#D94E39" width="3.2" height="3.2"/>
			<path fill="#D94E39" d="M113.9,124.3h-4.2v-4.2h4.2V124.3z M110.7,123.3h2.2v-2.2h-2.2V123.3z"/>
		</g>
	</g>
	<g>
		<g>
			<rect id="p_334_" x="110.2" y="130.1" fill="#D94E39" width="3.2" height="3.2"/>
			<path fill="#D94E39" d="M113.9,133.8h-4.2v-4.2h4.2V133.8z M110.7,132.8h2.2v-2.2h-2.2V132.8z"/>
		</g>
	</g>
	<g>
		<g>
			<rect id="p_335_" x="113.4" y="41.1" fill="#D94E39" width="3.2" height="3.2"/>
			<path fill="#D94E39" d="M117.1,44.8h-4.2v-4.2h4.2V44.8z M113.9,43.8h2.2v-2.2h-2.2V43.8z"/>
		</g>
	</g>
	<g>
		<g>
			<rect id="p_336_" x="113.4" y="60.1" fill="#D94E39" width="3.2" height="3.2"/>
			<path fill="#D94E39" d="M117.1,63.8h-4.2v-4.2h4.2V63.8z M113.9,62.8h2.2v-2.2h-2.2V62.8z"/>
		</g>
	</g>
	<g>
		<g>
			<rect id="p_337_" x="113.4" y="66.5" fill="#D94E39" width="3.2" height="3.2"/>
			<path fill="#D94E39" d="M117.1,70.2h-4.2V66h4.2V70.2z M113.9,69.2h2.2V67h-2.2V69.2z"/>
		</g>
	</g>
	<g>
		<g>
			<rect id="p_338_" x="113.4" y="76" fill="#D94E39" width="3.2" height="3.2"/>
			<path fill="#D94E39" d="M117.1,79.7h-4.2v-4.2h4.2V79.7z M113.9,78.7h2.2v-2.2h-2.2V78.7z"/>
		</g>
	</g>
	<g>
		<g>
			<rect id="p_339_" x="113.4" y="85.6" fill="#D94E39" width="3.2" height="3.2"/>
			<path fill="#D94E39" d="M117.1,89.3h-4.2v-4.2h4.2V89.3z M113.9,88.3h2.2v-2.2h-2.2V88.3z"/>
		</g>
	</g>
	<g>
		<g>
			<rect id="p_340_" x="113.4" y="98.3" fill="#D94E39" width="3.2" height="3.2"/>
			<path fill="#D94E39" d="M117.1,102h-4.2v-4.2h4.2V102z M113.9,101h2.2v-2.2h-2.2V101z"/>
		</g>
	</g>
	<g>
		<g>
			<rect id="p_341_" x="113.4" y="104.7" fill="#D94E39" width="3.2" height="3.2"/>
			<path fill="#D94E39" d="M117.1,108.4h-4.2v-4.2h4.2V108.4z M113.9,107.4h2.2v-2.2h-2.2V107.4z"/>
		</g>
	</g>
	<g>
		<g>
			<rect id="p_342_" x="113.4" y="117.4" fill="#D94E39" width="3.2" height="3.2"/>
			<path fill="#D94E39" d="M117.1,121.1h-4.2v-4.2h4.2V121.1z M113.9,120.1h2.2v-2.2h-2.2V120.1z"/>
		</g>
	</g>
	<g>
		<g>
			<rect id="p_343_" x="113.4" y="130.1" fill="#D94E39" width="3.2" height="3.2"/>
			<path fill="#D94E39" d="M117.1,133.8h-4.2v-4.2h4.2V133.8z M113.9,132.8h2.2v-2.2h-2.2V132.8z"/>
		</g>
	</g>
	<g>
		<g>
			<rect id="p_344_" x="116.6" y="41.1" fill="#D94E39" width="3.2" height="3.2"/>
			<path fill="#D94E39" d="M120.3,44.8h-4.2v-4.2h4.2V44.8z M117.1,43.8h2.2v-2.2h-2.2V43.8z"/>
		</g>
	</g>
	<g>
		<g>
			<rect id="p_345_" x="116.6" y="47.4" fill="#D94E39" width="3.2" height="3.2"/>
			<path fill="#D94E39" d="M120.3,51.1h-4.2v-4.2h4.2V51.1z M117.1,50.1h2.2v-2.2h-2.2V50.1z"/>
		</g>
	</g>
	<g>
		<g>
			<rect id="p_346_" x="116.6" y="50.6" fill="#D94E39" width="3.2" height="3.2"/>
			<path fill="#D94E39" d="M120.3,54.3h-4.2v-4.2h4.2V54.3z M117.1,53.3h2.2v-2.2h-2.2V53.3z"/>
		</g>
	</g>
	<g>
		<g>
			<rect id="p_347_" x="116.6" y="53.8" fill="#D94E39" width="3.2" height="3.2"/>
			<path fill="#D94E39" d="M120.3,57.5h-4.2v-4.2h4.2V57.5z M117.1,56.5h2.2v-2.2h-2.2V56.5z"/>
		</g>
	</g>
	<g>
		<g>
			<rect id="p_348_" x="116.6" y="60.1" fill="#D94E39" width="3.2" height="3.2"/>
			<path fill="#D94E39" d="M120.3,63.8h-4.2v-4.2h4.2V63.8z M117.1,62.8h2.2v-2.2h-2.2V62.8z"/>
		</g>
	</g>
	<g>
		<g>
			<rect id="p_349_" x="116.6" y="66.5" fill="#D94E39" width="3.2" height="3.2"/>
			<path fill="#D94E39" d="M120.3,70.2h-4.2V66h4.2V70.2z M117.1,69.2h2.2V67h-2.2V69.2z"/>
		</g>
	</g>
	<g>
		<g>
			<rect id="p_350_" x="116.6" y="72.9" fill="#D94E39" width="3.2" height="3.2"/>
			<path fill="#D94E39" d="M120.3,76.6h-4.2v-4.2h4.2V76.6z M117.1,75.6h2.2v-2.2h-2.2V75.6z"/>
		</g>
	</g>
	<g>
		<g>
			<rect id="p_351_" x="116.6" y="76" fill="#D94E39" width="3.2" height="3.2"/>
			<path fill="#D94E39" d="M120.3,79.7h-4.2v-4.2h4.2V79.7z M117.1,78.7h2.2v-2.2h-2.2V78.7z"/>
		</g>
	</g>
	<g>
		<g>
			<rect id="p_352_" x="116.6" y="88.8" fill="#D94E39" width="3.2" height="3.2"/>
			<path fill="#D94E39" d="M120.3,92.5h-4.2v-4.2h4.2V92.5z M117.1,91.5h2.2v-2.2h-2.2V91.5z"/>
		</g>
	</g>
	<g>
		<g>
			<rect id="p_353_" x="116.6" y="104.7" fill="#D94E39" width="3.2" height="3.2"/>
			<path fill="#D94E39" d="M120.3,108.4h-4.2v-4.2h4.2V108.4z M117.1,107.4h2.2v-2.2h-2.2V107.4z"/>
		</g>
	</g>
	<g>
		<g>
			<rect id="p_354_" x="116.6" y="107.8" fill="#D94E39" width="3.2" height="3.2"/>
			<path fill="#D94E39" d="M120.3,111.5h-4.2v-4.2h4.2V111.5z M117.1,110.5h2.2v-2.2h-2.2V110.5z"/>
		</g>
	</g>
	<g>
		<g>
			<rect id="p_355_" x="116.6" y="111" fill="#D94E39" width="3.2" height="3.2"/>
			<path fill="#D94E39" d="M120.3,114.7h-4.2v-4.2h4.2V114.7z M117.1,113.7h2.2v-2.2h-2.2V113.7z"/>
		</g>
	</g>
	<g>
		<g>
			<rect id="p_356_" x="116.6" y="114.2" fill="#D94E39" width="3.2" height="3.2"/>
			<path fill="#D94E39" d="M120.3,117.9h-4.2v-4.2h4.2V117.9z M117.1,116.9h2.2v-2.2h-2.2V116.9z"/>
		</g>
	</g>
	<g>
		<g>
			<rect id="p_357_" x="116.6" y="117.4" fill="#D94E39" width="3.2" height="3.2"/>
			<path fill="#D94E39" d="M120.3,121.1h-4.2v-4.2h4.2V121.1z M117.1,120.1h2.2v-2.2h-2.2V120.1z"/>
		</g>
	</g>
	<g>
		<g>
			<rect id="p_358_" x="116.6" y="120.6" fill="#D94E39" width="3.2" height="3.2"/>
			<path fill="#D94E39" d="M120.3,124.3h-4.2v-4.2h4.2V124.3z M117.1,123.3h2.2v-2.2h-2.2V123.3z"/>
		</g>
	</g>
	<g>
		<g>
			<rect id="p_359_" x="116.6" y="123.7" fill="#D94E39" width="3.2" height="3.2"/>
			<path fill="#D94E39" d="M120.3,127.4h-4.2v-4.2h4.2V127.4z M117.1,126.4h2.2v-2.2h-2.2V126.4z"/>
		</g>
	</g>
	<g>
		<g>
			<rect id="p_360_" x="116.6" y="126.9" fill="#D94E39" width="3.2" height="3.2"/>
			<path fill="#D94E39" d="M120.3,130.6h-4.2v-4.2h4.2V130.6z M117.1,129.6h2.2v-2.2h-2.2V129.6z"/>
		</g>
	</g>
	<g>
		<g>
			<rect id="p_361_" x="116.6" y="130.1" fill="#D94E39" width="3.2" height="3.2"/>
			<path fill="#D94E39" d="M120.3,133.8h-4.2v-4.2h4.2V133.8z M117.1,132.8h2.2v-2.2h-2.2V132.8z"/>
		</g>
	</g>
	<g>
		<g>
			<rect id="p_362_" x="119.8" y="41.1" fill="#D94E39" width="3.2" height="3.2"/>
			<path fill="#D94E39" d="M123.5,44.8h-4.2v-4.2h4.2V44.8z M120.3,43.8h2.2v-2.2h-2.2V43.8z"/>
		</g>
	</g>
	<g>
		<g>
			<rect id="p_363_" x="119.8" y="47.4" fill="#D94E39" width="3.2" height="3.2"/>
			<path fill="#D94E39" d="M123.5,51.1h-4.2v-4.2h4.2V51.1z M120.3,50.1h2.2v-2.2h-2.2V50.1z"/>
		</g>
	</g>
	<g>
		<g>
			<rect id="p_364_" x="119.8" y="50.6" fill="#D94E39" width="3.2" height="3.2"/>
			<path fill="#D94E39" d="M123.5,54.3h-4.2v-4.2h4.2V54.3z M120.3,53.3h2.2v-2.2h-2.2V53.3z"/>
		</g>
	</g>
	<g>
		<g>
			<rect id="p_365_" x="119.8" y="53.8" fill="#D94E39" width="3.2" height="3.2"/>
			<path fill="#D94E39" d="M123.5,57.5h-4.2v-4.2h4.2V57.5z M120.3,56.5h2.2v-2.2h-2.2V56.5z"/>
		</g>
	</g>
	<g>
		<g>
			<rect id="p_366_" x="119.8" y="60.1" fill="#D94E39" width="3.2" height="3.2"/>
			<path fill="#D94E39" d="M123.5,63.8h-4.2v-4.2h4.2V63.8z M120.3,62.8h2.2v-2.2h-2.2V62.8z"/>
		</g>
	</g>
	<g>
		<g>
			<rect id="p_367_" x="119.8" y="69.7" fill="#D94E39" width="3.2" height="3.2"/>
			<path fill="#D94E39" d="M123.5,73.4h-4.2v-4.2h4.2V73.4z M120.3,72.4h2.2v-2.2h-2.2V72.4z"/>
		</g>
	</g>
	<g>
		<g>
			<rect id="p_368_" x="119.8" y="72.9" fill="#D94E39" width="3.2" height="3.2"/>
			<path fill="#D94E39" d="M123.5,76.6h-4.2v-4.2h4.2V76.6z M120.3,75.6h2.2v-2.2h-2.2V75.6z"/>
		</g>
	</g>
	<g>
		<g>
			<rect id="p_369_" x="119.8" y="76" fill="#D94E39" width="3.2" height="3.2"/>
			<path fill="#D94E39" d="M123.5,79.7h-4.2v-4.2h4.2V79.7z M120.3,78.7h2.2v-2.2h-2.2V78.7z"/>
		</g>
	</g>
	<g>
		<g>
			<rect id="p_370_" x="119.8" y="79.2" fill="#D94E39" width="3.2" height="3.2"/>
			<path fill="#D94E39" d="M123.5,82.9h-4.2v-4.2h4.2V82.9z M120.3,81.9h2.2v-2.2h-2.2V81.9z"/>
		</g>
	</g>
	<g>
		<g>
			<rect id="p_371_" x="119.8" y="88.8" fill="#D94E39" width="3.2" height="3.2"/>
			<path fill="#D94E39" d="M123.5,92.5h-4.2v-4.2h4.2V92.5z M120.3,91.5h2.2v-2.2h-2.2V91.5z"/>
		</g>
	</g>
	<g>
		<g>
			<rect id="p_372_" x="119.8" y="91.9" fill="#D94E39" width="3.2" height="3.2"/>
			<path fill="#D94E39" d="M123.5,95.6h-4.2v-4.2h4.2V95.6z M120.3,94.6h2.2v-2.2h-2.2V94.6z"/>
		</g>
	</g>
	<g>
		<g>
			<rect id="p_373_" x="119.8" y="98.3" fill="#D94E39" width="3.2" height="3.2"/>
			<path fill="#D94E39" d="M123.5,102h-4.2v-4.2h4.2V102z M120.3,101h2.2v-2.2h-2.2V101z"/>
		</g>
	</g>
	<g>
		<g>
			<rect id="p_374_" x="119.8" y="117.4" fill="#D94E39" width="3.2" height="3.2"/>
			<path fill="#D94E39" d="M123.5,121.1h-4.2v-4.2h4.2V121.1z M120.3,120.1h2.2v-2.2h-2.2V120.1z"/>
		</g>
	</g>
	<g>
		<g>
			<rect id="p_375_" x="119.8" y="120.6" fill="#D94E39" width="3.2" height="3.2"/>
			<path fill="#D94E39" d="M123.5,124.3h-4.2v-4.2h4.2V124.3z M120.3,123.3h2.2v-2.2h-2.2V123.3z"/>
		</g>
	</g>
	<g>
		<g>
			<rect id="p_376_" x="119.8" y="123.7" fill="#D94E39" width="3.2" height="3.2"/>
			<path fill="#D94E39" d="M123.5,127.4h-4.2v-4.2h4.2V127.4z M120.3,126.4h2.2v-2.2h-2.2V126.4z"/>
		</g>
	</g>
	<g>
		<g>
			<rect id="p_377_" x="123" y="41.1" fill="#D94E39" width="3.2" height="3.2"/>
			<path fill="#D94E39" d="M126.7,44.8h-4.2v-4.2h4.2V44.8z M123.5,43.8h2.2v-2.2h-2.2V43.8z"/>
		</g>
	</g>
	<g>
		<g>
			<rect id="p_378_" x="123" y="47.4" fill="#D94E39" width="3.2" height="3.2"/>
			<path fill="#D94E39" d="M126.7,51.1h-4.2v-4.2h4.2V51.1z M123.5,50.1h2.2v-2.2h-2.2V50.1z"/>
		</g>
	</g>
	<g>
		<g>
			<rect id="p_379_" x="123" y="50.6" fill="#D94E39" width="3.2" height="3.2"/>
			<path fill="#D94E39" d="M126.7,54.3h-4.2v-4.2h4.2V54.3z M123.5,53.3h2.2v-2.2h-2.2V53.3z"/>
		</g>
	</g>
	<g>
		<g>
			<rect id="p_380_" x="123" y="53.8" fill="#D94E39" width="3.2" height="3.2"/>
			<path fill="#D94E39" d="M126.7,57.5h-4.2v-4.2h4.2V57.5z M123.5,56.5h2.2v-2.2h-2.2V56.5z"/>
		</g>
	</g>
	<g>
		<g>
			<rect id="p_381_" x="123" y="60.1" fill="#D94E39" width="3.2" height="3.2"/>
			<path fill="#D94E39" d="M126.7,63.8h-4.2v-4.2h4.2V63.8z M123.5,62.8h2.2v-2.2h-2.2V62.8z"/>
		</g>
	</g>
	<g>
		<g>
			<rect id="p_382_" x="123" y="66.5" fill="#D94E39" width="3.2" height="3.2"/>
			<path fill="#D94E39" d="M126.7,70.2h-4.2V66h4.2V70.2z M123.5,69.2h2.2V67h-2.2V69.2z"/>
		</g>
	</g>
	<g>
		<g>
			<rect id="p_383_" x="123" y="72.9" fill="#D94E39" width="3.2" height="3.2"/>
			<path fill="#D94E39" d="M126.7,76.6h-4.2v-4.2h4.2V76.6z M123.5,75.6h2.2v-2.2h-2.2V75.6z"/>
		</g>
	</g>
	<g>
		<g>
			<rect id="p_384_" x="123" y="76" fill="#D94E39" width="3.2" height="3.2"/>
			<path fill="#D94E39" d="M126.7,79.7h-4.2v-4.2h4.2V79.7z M123.5,78.7h2.2v-2.2h-2.2V78.7z"/>
		</g>
	</g>
	<g>
		<g>
			<rect id="p_385_" x="123" y="82.4" fill="#D94E39" width="3.2" height="3.2"/>
			<path fill="#D94E39" d="M126.7,86.1h-4.2v-4.2h4.2V86.1z M123.5,85.1h2.2v-2.2h-2.2V85.1z"/>
		</g>
	</g>
	<g>
		<g>
			<rect id="p_386_" x="123" y="85.6" fill="#D94E39" width="3.2" height="3.2"/>
			<path fill="#D94E39" d="M126.7,89.3h-4.2v-4.2h4.2V89.3z M123.5,88.3h2.2v-2.2h-2.2V88.3z"/>
		</g>
	</g>
	<g>
		<g>
			<rect id="p_387_" x="123" y="104.7" fill="#D94E39" width="3.2" height="3.2"/>
			<path fill="#D94E39" d="M126.7,108.4h-4.2v-4.2h4.2V108.4z M123.5,107.4h2.2v-2.2h-2.2V107.4z"/>
		</g>
	</g>
	<g>
		<g>
			<rect id="p_388_" x="123" y="107.8" fill="#D94E39" width="3.2" height="3.2"/>
			<path fill="#D94E39" d="M126.7,111.5h-4.2v-4.2h4.2V111.5z M123.5,110.5h2.2v-2.2h-2.2V110.5z"/>
		</g>
	</g>
	<g>
		<g>
			<rect id="p_389_" x="123" y="114.2" fill="#D94E39" width="3.2" height="3.2"/>
			<path fill="#D94E39" d="M126.7,117.9h-4.2v-4.2h4.2V117.9z M123.5,116.9h2.2v-2.2h-2.2V116.9z"/>
		</g>
	</g>
	<g>
		<g>
			<rect id="p_390_" x="123" y="123.7" fill="#D94E39" width="3.2" height="3.2"/>
			<path fill="#D94E39" d="M126.7,127.4h-4.2v-4.2h4.2V127.4z M123.5,126.4h2.2v-2.2h-2.2V126.4z"/>
		</g>
	</g>
	<g>
		<g>
			<rect id="p_391_" x="126.1" y="41.1" fill="#D94E39" width="3.2" height="3.2"/>
			<path fill="#D94E39" d="M129.8,44.8h-4.2v-4.2h4.2V44.8z M126.6,43.8h2.2v-2.2h-2.2V43.8z"/>
		</g>
	</g>
	<g>
		<g>
			<rect id="p_392_" x="126.1" y="60.1" fill="#D94E39" width="3.2" height="3.2"/>
			<path fill="#D94E39" d="M129.8,63.8h-4.2v-4.2h4.2V63.8z M126.6,62.8h2.2v-2.2h-2.2V62.8z"/>
		</g>
	</g>
	<g>
		<g>
			<rect id="p_393_" x="126.1" y="66.5" fill="#D94E39" width="3.2" height="3.2"/>
			<path fill="#D94E39" d="M129.8,70.2h-4.2V66h4.2V70.2z M126.6,69.2h2.2V67h-2.2V69.2z"/>
		</g>
	</g>
	<g>
		<g>
			<rect id="p_394_" x="126.1" y="72.9" fill="#D94E39" width="3.2" height="3.2"/>
			<path fill="#D94E39" d="M129.8,76.6h-4.2v-4.2h4.2V76.6z M126.6,75.6h2.2v-2.2h-2.2V75.6z"/>
		</g>
	</g>
	<g>
		<g>
			<rect id="p_395_" x="126.1" y="76" fill="#D94E39" width="3.2" height="3.2"/>
			<path fill="#D94E39" d="M129.8,79.7h-4.2v-4.2h4.2V79.7z M126.6,78.7h2.2v-2.2h-2.2V78.7z"/>
		</g>
	</g>
	<g>
		<g>
			<rect id="p_396_" x="126.1" y="79.2" fill="#D94E39" width="3.2" height="3.2"/>
			<path fill="#D94E39" d="M129.8,82.9h-4.2v-4.2h4.2V82.9z M126.6,81.9h2.2v-2.2h-2.2V81.9z"/>
		</g>
	</g>
	<g>
		<g>
			<rect id="p_397_" x="126.1" y="85.6" fill="#D94E39" width="3.2" height="3.2"/>
			<path fill="#D94E39" d="M129.8,89.3h-4.2v-4.2h4.2V89.3z M126.6,88.3h2.2v-2.2h-2.2V88.3z"/>
		</g>
	</g>
	<g>
		<g>
			<rect id="p_398_" x="126.1" y="88.8" fill="#D94E39" width="3.2" height="3.2"/>
			<path fill="#D94E39" d="M129.8,92.5h-4.2v-4.2h4.2V92.5z M126.6,91.5h2.2v-2.2h-2.2V91.5z"/>
		</g>
	</g>
	<g>
		<g>
			<rect id="p_399_" x="126.1" y="91.9" fill="#D94E39" width="3.2" height="3.2"/>
			<path fill="#D94E39" d="M129.8,95.6h-4.2v-4.2h4.2V95.6z M126.6,94.6h2.2v-2.2h-2.2V94.6z"/>
		</g>
	</g>
	<g>
		<g>
			<rect id="p_400_" x="126.1" y="98.3" fill="#D94E39" width="3.2" height="3.2"/>
			<path fill="#D94E39" d="M129.8,102h-4.2v-4.2h4.2V102z M126.6,101h2.2v-2.2h-2.2V101z"/>
		</g>
	</g>
	<g>
		<g>
			<rect id="p_401_" x="126.1" y="101.5" fill="#D94E39" width="3.2" height="3.2"/>
			<path fill="#D94E39" d="M129.8,105.2h-4.2V101h4.2V105.2z M126.6,104.2h2.2V102h-2.2V104.2z"/>
		</g>
	</g>
	<g>
		<g>
			<rect id="p_402_" x="126.1" y="107.8" fill="#D94E39" width="3.2" height="3.2"/>
			<path fill="#D94E39" d="M129.8,111.5h-4.2v-4.2h4.2V111.5z M126.6,110.5h2.2v-2.2h-2.2V110.5z"/>
		</g>
	</g>
	<g>
		<g>
			<rect id="p_403_" x="126.1" y="111" fill="#D94E39" width="3.2" height="3.2"/>
			<path fill="#D94E39" d="M129.8,114.7h-4.2v-4.2h4.2V114.7z M126.6,113.7h2.2v-2.2h-2.2V113.7z"/>
		</g>
	</g>
	<g>
		<g>
			<rect id="p_404_" x="126.1" y="114.2" fill="#D94E39" width="3.2" height="3.2"/>
			<path fill="#D94E39" d="M129.8,117.9h-4.2v-4.2h4.2V117.9z M126.6,116.9h2.2v-2.2h-2.2V116.9z"/>
		</g>
	</g>
	<g>
		<g>
			<rect id="p_405_" x="126.1" y="117.4" fill="#D94E39" width="3.2" height="3.2"/>
			<path fill="#D94E39" d="M129.8,121.1h-4.2v-4.2h4.2V121.1z M126.6,120.1h2.2v-2.2h-2.2V120.1z"/>
		</g>
	</g>
	<g>
		<g>
			<rect id="p_406_" x="126.1" y="120.6" fill="#D94E39" width="3.2" height="3.2"/>
			<path fill="#D94E39" d="M129.8,124.3h-4.2v-4.2h4.2V124.3z M126.6,123.3h2.2v-2.2h-2.2V123.3z"/>
		</g>
	</g>
	<g>
		<g>
			<rect id="p_407_" x="126.1" y="126.9" fill="#D94E39" width="3.2" height="3.2"/>
			<path fill="#D94E39" d="M129.8,130.6h-4.2v-4.2h4.2V130.6z M126.6,129.6h2.2v-2.2h-2.2V129.6z"/>
		</g>
	</g>
	<g>
		<g>
			<rect id="p_408_" x="126.1" y="130.1" fill="#D94E39" width="3.2" height="3.2"/>
			<path fill="#D94E39" d="M129.8,133.8h-4.2v-4.2h4.2V133.8z M126.6,132.8h2.2v-2.2h-2.2V132.8z"/>
		</g>
	</g>
	<g>
		<g>
			<rect id="p_409_" x="129.3" y="41.1" fill="#D94E39" width="3.2" height="3.2"/>
			<path fill="#D94E39" d="M133,44.8h-4.2v-4.2h4.2V44.8z M129.8,43.8h2.2v-2.2h-2.2V43.8z"/>
		</g>
	</g>
	<g>
		<g>
			<rect id="p_410_" x="129.3" y="44.2" fill="#D94E39" width="3.2" height="3.2"/>
			<path fill="#D94E39" d="M133,47.9h-4.2v-4.2h4.2V47.9z M129.8,46.9h2.2v-2.2h-2.2V46.9z"/>
		</g>
	</g>
	<g>
		<g>
			<rect id="p_411_" x="129.3" y="47.4" fill="#D94E39" width="3.2" height="3.2"/>
			<path fill="#D94E39" d="M133,51.1h-4.2v-4.2h4.2V51.1z M129.8,50.1h2.2v-2.2h-2.2V50.1z"/>
		</g>
	</g>
	<g>
		<g>
			<rect id="p_412_" x="129.3" y="50.6" fill="#D94E39" width="3.2" height="3.2"/>
			<path fill="#D94E39" d="M133,54.3h-4.2v-4.2h4.2V54.3z M129.8,53.3h2.2v-2.2h-2.2V53.3z"/>
		</g>
	</g>
	<g>
		<g>
			<rect id="p_413_" x="129.3" y="53.8" fill="#D94E39" width="3.2" height="3.2"/>
			<path fill="#D94E39" d="M133,57.5h-4.2v-4.2h4.2V57.5z M129.8,56.5h2.2v-2.2h-2.2V56.5z"/>
		</g>
	</g>
	<g>
		<g>
			<rect id="p_414_" x="129.3" y="57" fill="#D94E39" width="3.2" height="3.2"/>
			<path fill="#D94E39" d="M133,60.7h-4.2v-4.2h4.2V60.7z M129.8,59.7h2.2v-2.2h-2.2V59.7z"/>
		</g>
	</g>
	<g>
		<g>
			<rect id="p_415_" x="129.3" y="60.1" fill="#D94E39" width="3.2" height="3.2"/>
			<path fill="#D94E39" d="M133,63.8h-4.2v-4.2h4.2V63.8z M129.8,62.8h2.2v-2.2h-2.2V62.8z"/>
		</g>
	</g>
	<g>
		<g>
			<rect id="p_416_" x="129.3" y="69.7" fill="#D94E39" width="3.2" height="3.2"/>
			<path fill="#D94E39" d="M133,73.4h-4.2v-4.2h4.2V73.4z M129.8,72.4h2.2v-2.2h-2.2V72.4z"/>
		</g>
	</g>
	<g>
		<g>
			<rect id="p_417_" x="129.3" y="79.2" fill="#D94E39" width="3.2" height="3.2"/>
			<path fill="#D94E39" d="M133,82.9h-4.2v-4.2h4.2V82.9z M129.8,81.9h2.2v-2.2h-2.2V81.9z"/>
		</g>
	</g>
	<g>
		<g>
			<rect id="p_418_" x="129.3" y="85.6" fill="#D94E39" width="3.2" height="3.2"/>
			<path fill="#D94E39" d="M133,89.3h-4.2v-4.2h4.2V89.3z M129.8,88.3h2.2v-2.2h-2.2V88.3z"/>
		</g>
	</g>
	<g>
		<g>
			<rect id="p_419_" x="129.3" y="95.1" fill="#D94E39" width="3.2" height="3.2"/>
			<path fill="#D94E39" d="M133,98.8h-4.2v-4.2h4.2V98.8z M129.8,97.8h2.2v-2.2h-2.2V97.8z"/>
		</g>
	</g>
	<g>
		<g>
			<rect id="p_420_" x="129.3" y="98.3" fill="#D94E39" width="3.2" height="3.2"/>
			<path fill="#D94E39" d="M133,102h-4.2v-4.2h4.2V102z M129.8,101h2.2v-2.2h-2.2V101z"/>
		</g>
	</g>
	<g>
		<g>
			<rect id="p_421_" x="129.3" y="101.5" fill="#D94E39" width="3.2" height="3.2"/>
			<path fill="#D94E39" d="M133,105.2h-4.2V101h4.2V105.2z M129.8,104.2h2.2V102h-2.2V104.2z"/>
		</g>
	</g>
	<g>
		<g>
			<rect id="p_422_" x="129.3" y="107.8" fill="#D94E39" width="3.2" height="3.2"/>
			<path fill="#D94E39" d="M133,111.5h-4.2v-4.2h4.2V111.5z M129.8,110.5h2.2v-2.2h-2.2V110.5z"/>
		</g>
	</g>
	<g>
		<g>
			<rect id="p_423_" x="129.3" y="114.2" fill="#D94E39" width="3.2" height="3.2"/>
			<path fill="#D94E39" d="M133,117.9h-4.2v-4.2h4.2V117.9z M129.8,116.9h2.2v-2.2h-2.2V116.9z"/>
		</g>
	</g>
	<g>
		<g>
			<rect id="p_424_" x="129.3" y="117.4" fill="#D94E39" width="3.2" height="3.2"/>
			<path fill="#D94E39" d="M133,121.1h-4.2v-4.2h4.2V121.1z M129.8,120.1h2.2v-2.2h-2.2V120.1z"/>
		</g>
	</g>
	<g>
		<g>
			<rect id="p_425_" x="129.3" y="123.7" fill="#D94E39" width="3.2" height="3.2"/>
			<path fill="#D94E39" d="M133,127.4h-4.2v-4.2h4.2V127.4z M129.8,126.4h2.2v-2.2h-2.2V126.4z"/>
		</g>
	</g>
</g>
</svg>
