<?xml version="1.0" encoding="utf-8"?>
<!-- Generator: Adobe Illustrator 17.1.0, SVG Export Plug-In . SVG Version: 6.00 Build 0)  -->
<!DOCTYPE svg PUBLIC "-//W3C//DTD SVG 1.1//EN" "http://www.w3.org/Graphics/SVG/1.1/DTD/svg11.dtd">
<svg version="1.1" id="Calque_1" xmlns="http://www.w3.org/2000/svg" xmlns:xlink="http://www.w3.org/1999/xlink" x="0px" y="0px"
	 viewBox="0 0 103 103" enable-background="new 0 0 103 103" xml:space="preserve">
<path fill="#D94E39" d="M50.996,28.095c-10.088,0-18.26,8.171-18.26,18.26c0,0.202,0,0.404,0,0.706
	c0.101,1.917,0.404,3.733,1.009,5.448c3.934,12.812,17.15,29.457,17.15,29.457s13.316-16.746,17.15-29.457
	c0.605-1.715,1.009-3.531,1.009-5.448c0-0.202,0-0.404,0-0.706C69.255,36.267,61.084,28.095,50.996,28.095z M50.996,55.334
	c-4.943,0-8.978-4.035-8.978-8.978s4.035-8.978,8.978-8.978s8.978,4.035,8.978,8.978S55.939,55.334,50.996,55.334z"/>
<path fill="#D94E39" d="M51.5,103c-6.952,0-13.697-1.362-20.046-4.047c-6.133-2.594-11.64-6.307-16.37-11.037
	c-4.729-4.729-8.443-10.237-11.037-16.37C1.362,65.197,0,58.452,0,51.5s1.362-13.697,4.047-20.046
	c2.594-6.133,6.307-11.64,11.037-16.37s10.237-8.443,16.37-11.037C37.803,1.362,44.548,0,51.5,0s13.697,1.362,20.046,4.047
	c6.133,2.594,11.64,6.307,16.37,11.037s8.443,10.237,11.037,16.37C101.638,37.803,103,44.548,103,51.5s-1.362,13.697-4.047,20.046
	c-2.594,6.133-6.307,11.64-11.037,16.37c-4.729,4.729-10.237,8.443-16.37,11.037C65.197,101.638,58.452,103,51.5,103z M51.5,1.513
	c-6.749,0-13.295,1.322-19.457,3.928c-5.952,2.518-11.298,6.122-15.889,10.713c-4.591,4.591-8.195,9.937-10.713,15.889
	C2.835,38.205,1.513,44.752,1.513,51.5s1.321,13.295,3.928,19.457c2.518,5.952,6.122,11.298,10.713,15.889
	c4.591,4.591,9.937,8.195,15.889,10.713c6.162,2.606,12.708,3.928,19.457,3.928s13.295-1.322,19.457-3.928
	c5.952-2.518,11.298-6.122,15.889-10.713c4.591-4.591,8.195-9.937,10.713-15.889c2.606-6.162,3.928-12.708,3.928-19.457
	s-1.321-13.295-3.928-19.457c-2.518-5.952-6.122-11.298-10.713-15.889c-4.591-4.591-9.937-8.195-15.889-10.713
	C64.795,2.835,58.248,1.513,51.5,1.513z"/>
</svg>
